<?xml version="1.0" encoding="utf-8"?>
<!-- Generator: Adobe Illustrator 22.1.0, SVG Export Plug-In . SVG Version: 6.00 Build 0)  -->
<svg version="1.1" id="Layer_1" xmlns="http://www.w3.org/2000/svg" xmlns:xlink="http://www.w3.org/1999/xlink" x="0px" y="0px"
	 viewBox="0 0 157.6 72" style="enable-background:new 0 0 157.6 72;" xml:space="preserve">
<style type="text/css">
	.st0{fill:#CDA673;}
	.st1{fill:#E0CDAF;}
	.st2{fill:#414042;}
</style>
<g>
	<path class="st0" d="M53.3,20.5h-3.1h-3.8H35c-1.9,0-3.5,1.2-4.2,2.9l-7.1,19.5c-0.6,1.7-2.3,2.9-4.2,2.9h3.1h3.3h12
		c1.9,0,3.5-1.2,4.2-2.9l7.1-19.5C49.8,21.6,51.5,20.5,53.3,20.5z"/>
</g>
<g>
	<path class="st1" d="M29.5,22.9c0.8-2.3,3-3.8,5.5-3.8h1.8l1.1-2.9c0.5-1.4,1.9-2.4,3.4-2.4h-2.5h-3.1h-9.3c-1.5,0-2.9,0.9-3.4,2.4
		l-5.8,16c-0.5,1.4-1.9,2.4-3.4,2.4h2.5h2.7h6.4L29.5,22.9z"/>
</g>
<g>
	<g>
		<g>
			<g>
				<path class="st2" d="M58.4,29.2H59c0.4,0,0.7,0.1,1,0.2c0.3,0.1,0.6,0.3,0.8,0.5c0.2,0.2,0.4,0.4,0.5,0.7c0.1,0.3,0.2,0.6,0.2,1
					c0,0.4-0.1,0.7-0.2,1c-0.1,0.3-0.3,0.5-0.6,0.7c-0.2,0.2-0.5,0.4-0.8,0.5c-0.3,0.1-0.6,0.2-1,0.2h-0.5v0.8H57V34h-0.5
					c-0.4,0-0.7-0.1-1-0.2s-0.6-0.3-0.8-0.5c-0.2-0.2-0.4-0.4-0.5-0.7c-0.1-0.3-0.2-0.6-0.2-1c0-0.4,0.1-0.7,0.2-1
					c0.1-0.3,0.3-0.5,0.6-0.7c0.2-0.2,0.5-0.4,0.8-0.5c0.3-0.1,0.6-0.2,1-0.2H57v-0.8h1.4V29.2z M56.5,30.4c-0.4,0-0.7,0.1-0.9,0.3
					c-0.2,0.2-0.3,0.5-0.3,0.9c0,0.4,0.1,0.6,0.3,0.8c0.2,0.2,0.5,0.3,0.9,0.3H57v-2.3H56.5z M58.9,32.8c0.4,0,0.7-0.1,0.9-0.3
					c0.2-0.2,0.3-0.5,0.3-0.9c0-0.4-0.1-0.6-0.3-0.8c-0.2-0.2-0.5-0.3-0.9-0.3h-0.5v2.3H58.9z"/>
			</g>
		</g>
		<g>
			<g>
				<path class="st2" d="M67.3,28.7c0.4,0.2,0.8,0.4,1,0.7c0.3,0.3,0.5,0.6,0.7,1c0.2,0.4,0.2,0.8,0.2,1.3c0,0.4-0.1,0.9-0.2,1.3
					c-0.2,0.4-0.4,0.7-0.7,1c-0.3,0.3-0.6,0.5-1,0.7c-0.4,0.2-0.9,0.3-1.3,0.3c-0.5,0-0.9-0.1-1.3-0.2c-0.4-0.2-0.8-0.4-1-0.7
					c-0.3-0.3-0.5-0.6-0.7-1c-0.2-0.4-0.2-0.8-0.2-1.3c0-0.4,0.1-0.9,0.2-1.3c0.2-0.4,0.4-0.7,0.7-1c0.3-0.3,0.6-0.5,1-0.7
					c0.4-0.2,0.8-0.3,1.3-0.3C66.5,28.4,66.9,28.5,67.3,28.7z M65.2,29.8c-0.2,0.1-0.4,0.2-0.6,0.4s-0.3,0.4-0.4,0.6
					c-0.1,0.2-0.1,0.5-0.1,0.8c0,0.3,0,0.5,0.1,0.8c0.1,0.2,0.2,0.5,0.4,0.6c0.2,0.2,0.4,0.3,0.6,0.4c0.2,0.1,0.5,0.2,0.8,0.2
					c0.3,0,0.6-0.1,0.8-0.2c0.2-0.1,0.4-0.2,0.6-0.4c0.2-0.2,0.3-0.4,0.4-0.6c0.1-0.2,0.1-0.5,0.1-0.8c0-0.3,0-0.6-0.1-0.8
					c-0.1-0.2-0.2-0.5-0.4-0.6c-0.2-0.2-0.4-0.3-0.6-0.4c-0.2-0.1-0.5-0.1-0.8-0.1C65.7,29.7,65.4,29.7,65.2,29.8z"/>
			</g>
		</g>
		<g>
			<g>
				<path class="st2" d="M72.1,31h2.7v-2.4h1.4v6.2h-1.4v-2.5h-2.7v2.5h-1.4v-6.2h1.4V31z"/>
			</g>
		</g>
		<g>
			<g>
				<path class="st2" d="M83.7,33.5h0.9v0.4l-0.1,2.2h-1.3l-0.1-1.3h-4.2l-0.1,1.3h-1.3l-0.1-2.2v-0.4h0.3c0.1,0,0.3,0,0.4-0.1
					c0.1-0.1,0.2-0.2,0.3-0.4c0.2-0.4,0.3-0.9,0.4-1.4c0.1-0.6,0.1-1.2,0.1-2v-1h4.7V33.5z M80.2,32.1c-0.1,0.6-0.2,1.1-0.4,1.5h2.5
					v-3.7h-1.9C80.4,30.7,80.3,31.4,80.2,32.1z"/>
			</g>
		</g>
		<g>
			<g>
				<path class="st2" d="M59.7,46h-1.4V41h-2.6V46h-1.4v-6.2h5.5V46z"/>
			</g>
		</g>
		<g>
			<g>
				<path class="st2" d="M65.2,39.9c0.3,0.1,0.6,0.3,0.8,0.5c0.2,0.2,0.4,0.4,0.5,0.7c0.1,0.3,0.2,0.6,0.2,0.9c0,0.4-0.1,0.7-0.2,1
					c-0.1,0.3-0.3,0.5-0.5,0.7c-0.2,0.2-0.5,0.3-0.8,0.4c-0.3,0.1-0.7,0.2-1,0.2h-1.3V46h-1.4v-6.2h2.8
					C64.6,39.7,64.9,39.8,65.2,39.9z M64.1,43c0.4,0,0.7-0.1,0.9-0.3c0.2-0.2,0.3-0.4,0.3-0.8c0-0.3-0.1-0.6-0.3-0.7
					c-0.2-0.2-0.5-0.3-0.9-0.3h-1.3v2H64.1z"/>
			</g>
		</g>
		<g>
			<g>
				<path class="st2" d="M72.7,41h-3.3v1.2h2.9v1.2h-2.9v1.3h3.4V46H68v-6.2h4.7V41z"/>
			</g>
		</g>
		<g>
			<g>
				<path class="st2" d="M77.5,42c0.1-0.1,0.2-0.3,0.2-0.4c0-0.2-0.1-0.4-0.2-0.5c-0.2-0.1-0.4-0.2-0.8-0.2c-0.6,0-1.1,0.2-1.6,0.6
					l-0.7-1c0.3-0.3,0.7-0.5,1.1-0.7c0.4-0.1,0.8-0.2,1.3-0.2c0.4,0,0.7,0,1,0.1c0.3,0.1,0.5,0.2,0.7,0.4c0.2,0.2,0.4,0.3,0.5,0.6
					c0.1,0.2,0.2,0.5,0.2,0.7c0,0.3-0.1,0.5-0.2,0.7c-0.1,0.2-0.3,0.4-0.5,0.5v0.1c0.3,0.1,0.5,0.3,0.7,0.5c0.2,0.2,0.3,0.5,0.3,0.9
					c0,0.3-0.1,0.6-0.2,0.8c-0.1,0.2-0.3,0.5-0.5,0.6c-0.2,0.2-0.5,0.3-0.8,0.4c-0.3,0.1-0.7,0.2-1.2,0.2c-0.3,0-0.5,0-0.8-0.1
					c-0.2,0-0.5-0.1-0.7-0.2c-0.2-0.1-0.4-0.2-0.6-0.3c-0.2-0.1-0.4-0.3-0.6-0.4l0.7-1c0.3,0.3,0.6,0.4,1,0.5
					c0.3,0.1,0.7,0.2,1.1,0.2c0.4,0,0.7-0.1,0.9-0.2c0.2-0.2,0.3-0.4,0.3-0.6c0-0.4-0.3-0.7-0.8-0.7h-1.6v-1.2H77
					C77.2,42.2,77.4,42.1,77.5,42z"/>
			</g>
		</g>
		<g>
			<g>
				<path class="st2" d="M82.2,43.9l3-4.2h1.2V46H85V42L82.2,46h-1.4v-6.2h1.4V43.9z"/>
			</g>
		</g>
		<g>
			<g>
				<path class="st2" d="M93.9,44.7h0.9v0.4l-0.1,2.2h-1.3L93.3,46h-4.2l-0.1,1.3h-1.3l-0.1-2.2v-0.4H88c0.1,0,0.3,0,0.4-0.1
					c0.1-0.1,0.2-0.2,0.3-0.4c0.2-0.4,0.3-0.9,0.4-1.4c0.1-0.6,0.1-1.2,0.1-2v-1h4.7V44.7z M90.4,43.2c-0.1,0.6-0.2,1.1-0.4,1.5h2.5
					V41h-1.9C90.5,41.9,90.5,42.6,90.4,43.2z"/>
			</g>
		</g>
		<g>
			<g>
				<path class="st2" d="M100.8,41h-3.3v1.2h2.9v1.2h-2.9v1.3h3.4V46h-4.8v-6.2h4.7V41z"/>
			</g>
		</g>
		<g>
			<g>
				<path class="st2" d="M103.8,42.2h2.7v-2.4h1.4V46h-1.4v-2.5h-2.7V46h-1.4v-6.2h1.4V42.2z"/>
			</g>
		</g>
		<g>
			<g>
				<path class="st2" d="M114.9,41h-2.1v5h-1.4v-5h-2.1v-1.3h5.7V41z"/>
			</g>
		</g>
		<g>
			<g>
				<path class="st2" d="M120.1,41c-0.3-0.1-0.6-0.2-0.9-0.2c-0.3,0-0.6,0-0.8,0.1c-0.2,0.1-0.5,0.2-0.6,0.4
					c-0.2,0.2-0.3,0.4-0.4,0.6c-0.1,0.2-0.1,0.5-0.1,0.8c0,0.3,0,0.6,0.1,0.8c0.1,0.2,0.2,0.4,0.4,0.6c0.2,0.2,0.4,0.3,0.6,0.4
					c0.2,0.1,0.5,0.1,0.8,0.1c0.4,0,0.7-0.1,1-0.2c0.3-0.1,0.6-0.3,0.8-0.5l0.8,1c-0.7,0.7-1.6,1-2.7,1c-0.5,0-0.9-0.1-1.3-0.2
					c-0.4-0.2-0.8-0.4-1-0.7c-0.3-0.3-0.5-0.6-0.7-1c-0.2-0.4-0.2-0.8-0.2-1.3c0-0.4,0.1-0.9,0.2-1.3c0.2-0.4,0.4-0.7,0.7-1
					c0.3-0.3,0.7-0.5,1.1-0.7c0.4-0.2,0.9-0.3,1.4-0.3c0.5,0,0.9,0.1,1.3,0.2c0.4,0.1,0.8,0.4,1.1,0.6l-0.8,1
					C120.7,41.3,120.4,41.1,120.1,41z"/>
			</g>
		</g>
		<g>
			<g>
				<path class="st2" d="M124.5,42.1l0.7-0.1l1.8-2.3h1.7l-2.3,2.9l2.5,3.3H127l-1.9-2.7h-0.7V46h-1.4v-6.2h1.4V42.1z"/>
			</g>
		</g>
		<g>
			<g>
				<path class="st2" d="M131.5,43.9l3-4.2h1.2V46h-1.4V42l-2.9,3.9h-1.4v-6.2h1.4V43.9z"/>
			</g>
		</g>
		<g>
			<g>
				<path class="st2" d="M140.2,42L140.2,42l1.3-2.2h1.7l-2,3.1l2.2,3.2h-1.8l-1.4-2.4h-0.1l-1.4,2.4H137l2.2-3.2l-2-3h1.7L140.2,42
					z"/>
			</g>
		</g>
		<g>
			<g>
				<path class="st2" d="M59,52.2h-3.3v5h-1.4v-6.2H59V52.2z"/>
			</g>
		</g>
		<g>
			<g>
				<path class="st2" d="M64,51.1c0.3,0.1,0.6,0.3,0.8,0.5c0.2,0.2,0.4,0.4,0.5,0.7c0.1,0.3,0.2,0.6,0.2,0.9c0,0.4-0.1,0.7-0.2,1
					c-0.1,0.3-0.3,0.5-0.5,0.7c-0.2,0.2-0.5,0.3-0.8,0.4c-0.3,0.1-0.7,0.2-1,0.2h-1.3v1.7h-1.4v-6.2H63C63.4,50.9,63.7,51,64,51.1z
					 M62.9,54.2c0.4,0,0.7-0.1,0.9-0.3c0.2-0.2,0.3-0.4,0.3-0.8c0-0.3-0.1-0.6-0.3-0.7c-0.2-0.2-0.5-0.3-0.9-0.3h-1.3v2H62.9z"/>
			</g>
		</g>
		<g>
			<g>
				<path class="st2" d="M72.6,57.1h-1.5l-0.5-1.2h-2.7l-0.5,1.2h-1.5l2.6-6.2H70L72.6,57.1z M70.1,54.7l-0.8-2.4h-0.1l-0.8,2.4
					H70.1z"/>
			</g>
		</g>
		<g>
			<g>
				<path class="st2" d="M75.3,53.3H78v-2.4h1.4v6.2H78v-2.5h-2.7v2.5h-1.4v-6.2h1.4V53.3z"/>
			</g>
		</g>
		<g>
			<g>
				<path class="st2" d="M86.4,52.2h-2.1v5h-1.4v-5h-2.1v-1.3h5.7V52.2z"/>
			</g>
		</g>
		<g>
			<g>
				<path class="st2" d="M91.9,51c0.4,0.2,0.8,0.4,1,0.7c0.3,0.3,0.5,0.6,0.7,1c0.2,0.4,0.2,0.8,0.2,1.3c0,0.4-0.1,0.9-0.2,1.3
					c-0.2,0.4-0.4,0.7-0.7,1c-0.3,0.3-0.6,0.5-1,0.7c-0.4,0.2-0.9,0.3-1.3,0.3c-0.5,0-0.9-0.1-1.3-0.2c-0.4-0.2-0.8-0.4-1-0.7
					c-0.3-0.3-0.5-0.6-0.7-1c-0.2-0.4-0.2-0.8-0.2-1.3c0-0.4,0.1-0.9,0.2-1.3c0.2-0.4,0.4-0.7,0.7-1c0.3-0.3,0.6-0.5,1-0.7
					c0.4-0.2,0.8-0.3,1.3-0.3C91.1,50.8,91.5,50.9,91.9,51z M89.8,52.2c-0.2,0.1-0.4,0.2-0.6,0.4c-0.2,0.2-0.3,0.4-0.4,0.6
					c-0.1,0.2-0.1,0.5-0.1,0.8c0,0.3,0,0.5,0.1,0.8c0.1,0.2,0.2,0.5,0.4,0.6c0.2,0.2,0.4,0.3,0.6,0.4C90,56,90.3,56,90.6,56
					c0.3,0,0.6-0.1,0.8-0.2c0.2-0.1,0.4-0.2,0.6-0.4c0.2-0.2,0.3-0.4,0.4-0.6c0.1-0.2,0.1-0.5,0.1-0.8c0-0.3,0-0.6-0.1-0.8
					c-0.1-0.2-0.2-0.5-0.4-0.6c-0.2-0.2-0.4-0.3-0.6-0.4c-0.2-0.1-0.5-0.1-0.8-0.1C90.3,52,90,52.1,89.8,52.2z"/>
			</g>
		</g>
		<g>
			<g>
				<path class="st2" d="M99.7,51.4c0.4,0.3,0.6,0.7,0.6,1.2c0,0.3-0.1,0.5-0.2,0.7c-0.1,0.2-0.3,0.4-0.4,0.5v0.1
					c0.3,0.1,0.5,0.3,0.7,0.5c0.2,0.3,0.3,0.6,0.3,0.9c0,0.3,0,0.5-0.1,0.7c-0.1,0.2-0.2,0.4-0.4,0.6c-0.2,0.2-0.4,0.3-0.7,0.4
					c-0.3,0.1-0.6,0.1-1,0.1h-3v-6.2h2.8C98.8,50.9,99.3,51.1,99.7,51.4z M98.1,53.4c0.2,0,0.4-0.1,0.6-0.2c0.1-0.1,0.2-0.3,0.2-0.5
					c0-0.4-0.3-0.6-0.8-0.6h-1.4v1.3H98.1z M98.3,56c0.6,0,0.9-0.2,0.9-0.7c0-0.2-0.1-0.4-0.2-0.5c-0.2-0.1-0.4-0.2-0.7-0.2h-1.6V56
					H98.3z"/>
			</g>
		</g>
	</g>
</g>
</svg>
