<?xml version="1.0" encoding="utf-8"?>
<!-- Generator: Adobe Illustrator 22.1.0, SVG Export Plug-In . SVG Version: 6.00 Build 0)  -->
<svg version="1.1" id="Layer_1" xmlns="http://www.w3.org/2000/svg" xmlns:xlink="http://www.w3.org/1999/xlink" x="0px" y="0px"
	 viewBox="0 0 500 500" style="enable-background:new 0 0 500 500;" xml:space="preserve">
<style type="text/css">
	.st0{fill-rule:evenodd;clip-rule:evenodd;fill:#EDAA0E;}
	.st1{fill-rule:evenodd;clip-rule:evenodd;fill:#C70007;}
	.st2{fill:#2E58A6;}
</style>
<g>
	<g>
		<path class="st0" d="M303.9,204.3c15.1-10.7,17.8-22.7,8.3-35.1c-4.5-5.9-11.2-7.2-13.6-11.8c-3.9-7.5,2.2-16.7,12.1-15.7
			C329.3,143.4,342.2,179,303.9,204.3L303.9,204.3z"/>
		<path class="st1" d="M321.8,185c7.5-12.4,6.3-26.8,2.2-34.9c45.7,66.9-2.7,150.3-86.6,144.2c-0.9-5.3-0.7-11.3,2.5-15.3
			c23.9,2.3,47.4-4.5,67-20.7c18.3-17.1,25.9-39,23.1-66.2c-2.7,5-6.5,9.7-11.2,14l6.5,10.2c0.6,1,0.4,2.3-0.6,2.9l0,0
			c-1,0.6-2.3,0.4-2.9-0.6l-6.1-9.6c-2.6,2.1-5.3,4.2-8.1,6.3l11.2,17.3c0.6,1,0.4,2.3-0.6,2.9l0,0c-1,0.6-2.3,0.4-2.9-0.6l-11-17.2
			c-3.1,2.1-6.3,4.2-9.6,6.3l13.7,21.4c0.7,1.1,0.4,2.6-0.7,3.2l0,0c-1,0.7-2.5,0.4-3.2-0.6l-13.7-21.5c-3.6,2.2-7.2,4.4-10.9,6.5
			l15.5,24.1c0.9,1.2,0.5,2.8-0.7,3.6l0,0c-1.2,0.9-2.8,0.5-3.7-0.7l-15.5-24.2c-4.3,2.6-8.3,5.2-12.4,7.7l13.1,20.5
			c0.7,1.1,0.4,2.5-0.6,3.2l0,0c-1.1,0.6-2.6,0.4-3.2-0.7L259,246c-3.8,2.6-7.5,5.3-10.8,8l9.9,15.5c0.6,1,0.4,2.2-0.6,2.9l0,0
			c-1,0.6-2.3,0.2-2.9-0.7l-9.7-15c-13.3,11.8-21.1,25.4-15.7,43c-25.6,0.1-18.3-30.1-6.1-44.4C251.2,221.6,304.4,217.4,321.8,185
			L321.8,185z"/>
		<path class="st1" d="M196.5,204.3c-15,10.7-17.7,22.6-8.2,35c4.5,5.9,11.2,7.4,13.5,11.8c4,7.5-2.1,16.7-12,15.7
			C171.2,265.1,158.2,229.5,196.5,204.3L196.5,204.3z"/>
		<path class="st0" d="M178.7,223.5c-7.5,12.5-6.3,26.8-2.2,35c-45.7-67,2.6-150.3,86.6-144.3c0.9,5.3,0.7,11.3-2.5,15.3
			c-23.9-2.3-47.5,4.7-67.1,20.9c-18.2,16.9-25.9,39-23.1,66c2.7-5,6.6-9.6,11.3-14l-6.6-10.2c-0.6-1-0.2-2.3,0.7-2.9l0,0
			c1-0.6,2.2-0.4,2.8,0.6l6.3,9.7c2.5-2.2,5.2-4.3,8-6.4l-11.2-17.3c-0.6-1-0.2-2.2,0.7-2.8l0,0c1-0.7,2.2-0.4,2.8,0.6l11.2,17.2
			c3.1-2.2,6.3-4.3,9.6-6.4l-13.7-21.4c-0.7-1.1-0.4-2.5,0.6-3.2l0,0c1.1-0.6,2.6-0.4,3.2,0.7L210,182c3.6-2.2,7.2-4.3,10.8-6.5
			l-15.5-24.1c-0.7-1.2-0.4-2.8,0.9-3.6l0,0c1.2-0.9,2.8-0.5,3.6,0.7l15.6,24.2c4.2-2.6,8.3-5.2,12.4-7.7l-13.3-20.5
			c-0.6-1-0.4-2.5,0.7-3.2l0,0c1.1-0.6,2.5-0.4,3.2,0.7l13.1,20.4c3.8-2.6,7.5-5.2,10.8-8l-9.9-15.5c-0.6-1-0.4-2.2,0.6-2.8l0,0
			c1-0.6,2.2-0.4,2.9,0.6l9.6,15c13.4-11.8,21.1-25.3,15.8-43c25.5-0.1,18.3,30.1,6.1,44.6C249.3,187,196.1,191.2,178.7,223.5
			L178.7,223.5z"/>
	</g>
	<g>
		<path class="st2" d="M166.9,374.8c-0.2,0-0.4,0.2-0.5,0.5l-0.3,1c-0.1,0.5-0.3,1-0.4,1.4c-0.2,0.5-0.5,1-0.9,1.4
			c0.6,0.3,1.1,0.7,1.4,1.3c0.3,0.5,0.5,1.2,0.5,2c0,0.1,0,0.2,0,0.3c0,0.1,0,0.2,0,0.3v0.6c0,0.3,0,0.5,0.1,0.7
			c0.1,0.2,0.2,0.3,0.4,0.3c0.3,0,0.5-0.4,0.5-1.3v-1.3c0-0.8,0.4-1.2,1.3-1.2c0.9,0,1.3,0.4,1.3,1.2v2c0,1.9-1,2.9-3.1,2.9
			c-1,0-1.7-0.2-2.2-0.7c-0.5-0.4-0.7-1.2-0.7-2.2v-0.7v-0.9c0-0.6-0.2-1-0.5-1.3c-0.3-0.3-0.8-0.5-1.3-0.5
			c-0.4,0.1-0.8,0.2-1.3,0.3c-0.5,0.1-1,0.1-1.5,0.2v1.7c0,0.6,0,1.1,0.1,1.3c0,0.2,0.1,0.3,0.2,0.3c0,0,0.1,0,0.2,0
			c0.1,0,0.2,0,0.3-0.1c0.1,0,0.2-0.1,0.3-0.1c0.1,0,0.2,0,0.4,0c0.8,0,1.2,0.4,1.2,1.2c0,0.8-0.5,1.2-1.5,1.2c-0.1,0-0.2,0-0.2,0
			c0,0-0.1,0-0.2,0c-0.2,0-0.5-0.1-0.9-0.1c-0.4,0-0.8-0.1-1.3-0.1c-0.2,0-0.5,0-0.9,0.1c-0.4,0-0.7,0.1-1,0.1
			c-0.2,0-0.4,0.1-0.5,0.1c-0.2,0-0.3,0-0.3,0c-1,0-1.5-0.4-1.5-1.3c0-0.8,0.4-1.2,1.3-1.2c0.1,0,0.2,0,0.2,0c0.1,0,0.1,0,0.2,0
			c0.2,0.1,0.5,0.1,0.7,0.1c0.1,0,0.2-0.1,0.3-0.3c0.1-0.2,0.1-0.6,0.1-1.3v-6.1c0-0.6,0-1-0.1-1.3c-0.1-0.2-0.2-0.3-0.3-0.3
			c-0.1,0-0.2,0-0.4,0c-0.1,0-0.3,0-0.4,0.1c-0.1,0-0.2,0-0.2,0c-0.1,0-0.1,0-0.2,0c-0.9,0-1.3-0.4-1.3-1.2c0-0.8,0.5-1.2,1.5-1.2
			c0.1,0,0.2,0,0.3,0c0.2,0,0.3,0,0.5,0.1c0.3,0,0.7,0.1,1,0.1c0.4,0,0.7,0,0.9,0c0.5,0,0.9,0,1.3-0.1c0.4,0,0.7-0.1,0.9-0.1
			c0.1,0,0.2,0,0.2,0c0,0,0.1,0,0.2,0c1,0,1.5,0.4,1.5,1.2c0,0.8-0.4,1.3-1.2,1.3c-0.1,0-0.3,0-0.4,0c-0.1,0-0.2,0-0.3-0.1
			c-0.1,0-0.2-0.1-0.3-0.1c-0.1,0-0.2,0-0.2,0c-0.1,0-0.2,0.1-0.2,0.3c0,0.2-0.1,0.7-0.1,1.3v2.3c0.6-0.1,1.1-0.1,1.5-0.2
			c0.4-0.1,0.8-0.2,1.1-0.3c0.3-0.1,0.5-0.2,0.7-0.4c0.2-0.2,0.3-0.4,0.5-0.6c0.1-0.3,0.3-0.5,0.3-0.9c0.1-0.3,0.2-0.6,0.3-1
			c0.1-0.4,0.2-0.8,0.3-1.2c0.1-0.4,0.3-0.7,0.5-1c0.2-0.3,0.6-0.5,1-0.7c0.4-0.2,0.9-0.3,1.6-0.3c0.4,0,0.7,0.1,1.1,0.2
			c0.4,0.1,0.7,0.3,1,0.5c0.3,0.2,0.6,0.5,0.7,0.9c0.2,0.3,0.3,0.8,0.3,1.2c0,0.5-0.2,1-0.5,1.4c-0.3,0.4-0.8,0.6-1.5,0.6
			c-0.6,0-1-0.1-1.3-0.4c-0.3-0.3-0.5-0.7-0.5-1.1c0-0.2,0-0.4,0-0.5C166.9,375,166.9,374.9,166.9,374.8L166.9,374.8z"/>
		<path class="st2" d="M178.9,386.9c-2,0-3.5-0.7-4.7-2c-1.2-1.3-1.8-3.1-1.8-5.3c0-2.2,0.6-4,1.8-5.3c1.2-1.4,2.8-2,4.8-2
			c2,0,3.6,0.7,4.8,2c1.2,1.3,1.7,3.1,1.7,5.3c0,2.2-0.6,4-1.8,5.3C182.6,386.2,181,386.9,178.9,386.9z M179.1,374.7
			c-1.1,0-2,0.4-2.6,1.2c-0.6,0.8-1,1.9-1,3.4v0.3c0,1.5,0.3,2.7,0.9,3.6c0.6,0.9,1.5,1.3,2.6,1.3c1.1,0,2-0.4,2.7-1.3
			c0.7-0.9,1-2.1,1-3.6C182.6,376.4,181.4,374.7,179.1,374.7z"/>
		<path class="st2" d="M192.5,378.3h5.8v-1.7c0-0.6,0-1.1-0.1-1.3c0-0.2-0.1-0.3-0.2-0.3c0,0-0.1,0-0.2,0c-0.1,0-0.2,0-0.3,0.1
			c-0.1,0-0.2,0.1-0.3,0.1s-0.2,0-0.4,0c-0.8,0-1.2-0.4-1.2-1.3c0-0.8,0.5-1.2,1.5-1.2c0.1,0,0.2,0,0.2,0c0,0,0.1,0,0.2,0
			c0.2,0,0.6,0.1,0.9,0.1c0.4,0,0.8,0.1,1.3,0.1c0.2,0,0.5,0,0.9,0c0.4,0,0.7-0.1,1.1-0.1c0.2,0,0.4-0.1,0.5-0.1c0.2,0,0.3,0,0.3,0
			c1,0,1.5,0.4,1.5,1.2c0,0.8-0.4,1.2-1.3,1.2c-0.1,0-0.2,0-0.2,0c-0.1,0-0.1,0-0.2,0c-0.1,0-0.2-0.1-0.4-0.1c-0.1,0-0.2,0-0.3,0
			c-0.1,0-0.3,0.1-0.3,0.3c-0.1,0.2-0.1,0.6-0.1,1.3v6.1c0,0.6,0,1.1,0.1,1.3c0,0.2,0.1,0.3,0.2,0.3c0,0,0.1,0,0.2,0
			c0.1,0,0.2,0,0.3-0.1c0.1,0,0.2-0.1,0.3-0.1c0.1,0,0.2,0,0.4,0c0.8,0,1.2,0.4,1.2,1.2c0,0.8-0.5,1.2-1.5,1.2c-0.1,0-0.2,0-0.2,0
			c0,0-0.1,0-0.2,0c-0.2,0-0.5-0.1-0.9-0.1c-0.4,0-0.8-0.1-1.3-0.1c-0.2,0-0.5,0-0.9,0.1c-0.4,0-0.7,0.1-1,0.1
			c-0.2,0-0.4,0.1-0.5,0.1c-0.2,0-0.3,0-0.3,0c-1,0-1.5-0.4-1.5-1.3c0-0.8,0.4-1.2,1.3-1.2c0.1,0,0.2,0,0.2,0c0.1,0,0.1,0,0.2,0
			c0.1,0,0.2,0.1,0.4,0.1c0.1,0,0.3,0,0.3,0c0.1,0,0.3-0.1,0.3-0.3c0.1-0.2,0.1-0.6,0.1-1.3v-1.9h-5.8v1.9c0,0.6,0,1,0.1,1.3
			c0.1,0.2,0.2,0.3,0.3,0.3c0.1,0,0.2,0,0.3,0c0.1,0,0.3,0,0.4-0.1c0.1,0,0.2,0,0.2,0c0.1,0,0.1,0,0.2,0c0.8,0,1.3,0.4,1.3,1.2
			c0,0.8-0.5,1.3-1.5,1.3c-0.1,0-0.2,0-0.3,0c-0.2,0-0.3,0-0.5-0.1c-0.3,0-0.7-0.1-1-0.1c-0.4,0-0.7-0.1-0.9-0.1
			c-0.5,0-0.9,0-1.3,0.1c-0.4,0-0.7,0.1-0.9,0.1c-0.1,0-0.2,0-0.2,0c0,0-0.1,0-0.2,0c-1,0-1.5-0.4-1.5-1.2c0-0.8,0.4-1.2,1.2-1.2
			c0.1,0,0.3,0,0.4,0c0.1,0,0.2,0,0.3,0.1c0.1,0,0.2,0,0.3,0.1c0.1,0,0.2,0,0.2,0c0.1,0,0.2-0.1,0.2-0.3c0-0.2,0.1-0.6,0.1-1.3v-6.1
			c0-0.6,0-1-0.1-1.3c-0.1-0.2-0.2-0.3-0.3-0.3c-0.1,0-0.2,0-0.4,0c-0.1,0-0.3,0-0.4,0.1c-0.1,0-0.1,0-0.2,0c-0.1,0-0.1,0-0.2,0
			c-0.8,0-1.3-0.4-1.3-1.2c0-0.8,0.5-1.2,1.5-1.2c0.1,0,0.2,0,0.3,0c0.2,0,0.3,0,0.5,0.1c0.3,0,0.7,0.1,1.1,0.1c0.4,0,0.7,0,0.9,0
			c0.5,0,0.9,0,1.3-0.1c0.4,0,0.7-0.1,0.9-0.1c0.1,0,0.1,0,0.2,0c0,0,0.1,0,0.2,0c1,0,1.5,0.4,1.5,1.2c0,0.8-0.4,1.3-1.3,1.3
			c-0.1,0-0.3,0-0.4,0c-0.1,0-0.2,0-0.3-0.1c-0.1,0-0.2-0.1-0.3-0.1c-0.1,0-0.1,0-0.2,0c-0.1,0-0.2,0.1-0.2,0.3
			c0,0.2-0.1,0.7-0.1,1.3V378.3z"/>
		<path class="st2" d="M211.9,372.3c0.7,0,1.3,0.1,1.9,0.3c0.6,0.2,1.1,0.5,1.5,0.9V372c0-0.6,0-1-0.1-1.2c0-0.2-0.1-0.4-0.2-0.4
			c-0.1,0-0.2,0-0.3,0c-0.1,0-0.3,0-0.3,0h0.1c-0.3,0.1-0.5,0.1-0.7,0.1c-0.9,0-1.4-0.4-1.4-1.2c0-0.8,0.6-1.2,1.7-1.2
			c0.2,0,0.3,0,0.4,0c0.1,0,0.3,0,0.4,0l0.8,0.1c0.1,0,0.1,0,0.2,0c0.1,0,0.2,0,0.4,0c0.1,0,0.3,0,0.4,0c0.1,0,0.2,0,0.3,0
			c0.8,0,1.2,0.5,1.2,1.4c0,0.1,0,0.2,0,0.3s0,0.2,0,0.4c0,0.3-0.1,0.7-0.1,1.3c0,0.5,0,1.2,0,2.1c1-0.8,2.1-1.3,3.6-1.3
			c0.9,0,1.8,0.2,2.5,0.5c0.8,0.3,1.4,0.8,1.9,1.4c0.5,0.6,0.9,1.3,1.2,2.2c0.3,0.9,0.4,1.8,0.4,2.9c0,1.1-0.2,2.2-0.5,3.1
			c-0.3,0.9-0.7,1.7-1.3,2.4c-0.6,0.7-1.2,1.2-2,1.6c-0.8,0.4-1.7,0.6-2.7,0.6c-1.3,0-2.4-0.3-3.2-1v1.2c0,0.7,0,1.2,0.1,1.4
			c0.1,0.2,0.2,0.3,0.3,0.3c0.1,0,0.2,0,0.4-0.1c0.1,0,0.3,0,0.5-0.1c0.2,0,0.3,0,0.2,0c0.8,0,1.3,0.4,1.3,1.2
			c0,0.8-0.5,1.2-1.5,1.2c-0.1,0-0.3,0-0.3,0c-0.1,0-0.2,0-0.3,0c-0.2,0-0.5-0.1-0.9-0.1c-0.3,0-0.8,0-1.3,0c-0.4,0-0.8,0-1.1,0
			c-0.3,0-0.6,0.1-0.8,0.1c-0.1,0-0.2,0-0.3,0c-0.1,0-0.2,0-0.2,0c-0.4,0-0.8-0.1-1.1-0.4c-0.3-0.2-0.4-0.6-0.4-0.9
			c0-0.8,0.4-1.2,1.3-1.2c0.2,0,0.4,0,0.7,0.1c0.2,0.1,0.4,0.1,0.5,0.1c0.1,0,0.1,0,0.1-0.1s0.1-0.2,0.1-0.3c0-0.2,0-0.5,0.1-0.9
			c0-0.4,0-0.9,0.1-1.6c-0.9,0.6-2,1-3.3,1c-1,0-1.8-0.2-2.6-0.5c-0.8-0.4-1.4-0.9-2-1.5c-0.6-0.6-1-1.4-1.3-2.3
			c-0.3-0.9-0.5-1.9-0.5-3c0-1.1,0.2-2.1,0.5-3c0.3-0.9,0.7-1.7,1.3-2.3c0.6-0.6,1.2-1.1,2-1.5C210.1,372.5,211,372.3,211.9,372.3z
			 M212.2,384.5c0.7,0,1.2-0.1,1.6-0.4c0.4-0.3,0.7-0.6,1-1.1c0.2-0.4,0.4-1,0.5-1.5c0.1-0.6,0.1-1.2,0.1-1.8c0-0.6,0-1.1-0.1-1.7
			c-0.1-0.6-0.2-1.1-0.4-1.6c-0.2-0.5-0.5-0.9-1-1.2c-0.4-0.3-1-0.5-1.7-0.5c-1.1,0-1.9,0.4-2.5,1.3c-0.6,0.8-0.9,2-0.9,3.5
			c0,1.6,0.3,2.8,0.9,3.6C210.2,384,211,384.5,212.2,384.5z M221.5,374.7c-0.7,0-1.3,0.2-1.7,0.5c-0.4,0.3-0.8,0.7-1,1.2
			c-0.2,0.5-0.4,1-0.5,1.7c-0.1,0.6-0.1,1.2-0.1,1.9c0,0.6,0,1.1,0.1,1.7c0.1,0.6,0.2,1,0.4,1.5c0.2,0.4,0.5,0.8,0.9,1.1
			c0.4,0.3,1,0.4,1.7,0.4c1.1,0,2-0.4,2.6-1.3c0.6-0.8,0.9-2.1,0.9-3.6C224.8,376.4,223.7,374.7,221.5,374.7z"/>
		<path class="st2" d="M242.9,378.5c0,0.4,0,0.8,0,1c0,0.2-0.1,0.4-0.2,0.6c-0.1,0.1-0.2,0.2-0.4,0.2c-0.2,0-0.4,0-0.7,0h-8.3
			c-0.1,0-0.1,0-0.1,0c0,1.2,0.4,2.2,1.1,3c0.7,0.8,1.5,1.2,2.6,1.2c0.7,0,1.3-0.2,1.8-0.6c0.6-0.4,0.9-0.8,1.1-1.4l0.2-0.7
			c0.1-0.3,0.3-0.5,0.5-0.7c0.2-0.2,0.5-0.2,0.8-0.2c1,0,1.4,0.5,1.4,1.4c0,1.2-0.6,2.3-1.9,3.3c-1.2,0.9-2.6,1.4-4.2,1.4
			c-2,0-3.6-0.7-4.7-2c-1.1-1.3-1.7-3-1.7-5.2c0-2.2,0.6-4,1.8-5.4c1.2-1.4,2.8-2.1,4.8-2.1c0.9,0,1.7,0.1,2.5,0.4
			c0.7,0.3,1.4,0.7,1.9,1.3C242.3,375.2,242.9,376.7,242.9,378.5z M239.9,377.8c0-0.8-0.3-1.5-0.9-2.1c-0.6-0.6-1.4-0.9-2.1-0.9
			c-0.8,0-1.6,0.3-2.4,1c-0.7,0.6-1,1.3-1,2.1H239.9z"/>
		<path class="st2" d="M248.4,372.8c0.6,0,1,0.3,1.1,0.8c1-0.9,2.2-1.3,3.6-1.3c0.9,0,1.8,0.2,2.5,0.5c0.8,0.3,1.4,0.8,1.9,1.4
			c0.5,0.6,1,1.3,1.2,2.2c0.3,0.9,0.4,1.8,0.4,2.9c0,1.1-0.2,2.1-0.5,3.1c-0.3,0.9-0.7,1.8-1.3,2.5c-0.6,0.7-1.2,1.2-2,1.6
			c-0.8,0.3-1.7,0.5-2.6,0.5c-1.3,0-2.3-0.3-3.2-1v1.2c0,0.3,0,0.6,0,0.8c0,0.2,0,0.3,0,0.4v0c0.1,0.3,0.2,0.5,0.3,0.5
			c0.1,0,0.2,0,0.4-0.1c0.1,0,0.3,0,0.5-0.1c0.2,0,0.3,0,0.3,0c0.8,0,1.2,0.4,1.2,1.2c0,0.8-0.5,1.2-1.5,1.2c-0.1,0-0.3,0-0.5,0
			c-0.2,0-0.4,0-0.7-0.1h0c-0.4-0.1-1-0.1-1.7-0.1c-0.2,0-0.4,0-0.5,0c-0.2,0-0.3,0-0.5,0c0,0-0.1,0-0.1,0c0,0-0.1,0-0.1,0
			c-0.3,0-0.5,0.1-0.7,0.1c-0.2,0-0.4,0-0.5,0c-0.4,0-0.8-0.1-1.1-0.4c-0.3-0.2-0.4-0.6-0.4-0.9c0-0.8,0.4-1.2,1.3-1.2
			c0.1,0,0.2,0,0.3,0c0.1,0,0.2,0,0.3,0c0.2,0.1,0.4,0.1,0.6,0.1c0.1,0,0.1-0.1,0.2-0.2c0-0.2,0.1-0.5,0.1-1c0-0.4,0-1,0.1-1.8
			c0-1.7,0-3.3,0-5c0-1.7,0-3.4,0-5c0-0.6-0.1-0.9-0.2-0.9c-0.1,0-0.2,0-0.4,0.1c-0.1,0-0.2,0.1-0.4,0.1c-0.1,0-0.2,0-0.4,0
			c-0.9,0-1.4-0.4-1.4-1.2c0-0.8,0.5-1.2,1.6-1.2c0.1,0,0.2,0,0.3,0c0.1,0,0.2,0,0.3,0c0.1,0,0.1,0,0.2,0c0.1,0,0.1,0,0.2,0
			c0.1,0,0.2,0,0.3,0s0.2,0,0.2,0c0.1,0,0.1,0,0.3,0c0.1,0,0.3,0,0.4,0c0.1,0,0.3,0,0.4,0C248.3,372.8,248.4,372.8,248.4,372.8z
			 M249.9,377.1c-0.1,0.4-0.2,0.7-0.2,1.1c0,0.4-0.1,0.8-0.1,1.3c0,0.1,0,0.1,0,0.2c0,0.1,0,0.2,0,0.2v0.3c0,0.6,0,1.1,0.1,1.5
			c0,0.4,0.1,0.7,0.2,1c0.1,0.2,0.2,0.5,0.4,0.7c0.2,0.2,0.4,0.4,0.6,0.6c0.3,0.2,0.5,0.3,0.9,0.4c0.3,0.1,0.6,0.2,1,0.2
			c1.1,0,2-0.4,2.6-1.3c0.6-0.8,0.9-2.1,0.9-3.6c0-3.2-1.1-4.8-3.2-4.8c-0.7,0-1.4,0.2-1.9,0.7C250.4,375.8,250.1,376.4,249.9,377.1
			z"/>
		<path class="st2" d="M273.9,378.5c0,0.4,0,0.8,0,1c0,0.2-0.1,0.4-0.2,0.6c-0.1,0.1-0.2,0.2-0.4,0.2c-0.2,0-0.4,0-0.7,0h-8.3
			c-0.1,0-0.1,0-0.1,0c0,1.2,0.4,2.2,1.1,3c0.7,0.8,1.5,1.2,2.6,1.2c0.7,0,1.3-0.2,1.8-0.6c0.6-0.4,0.9-0.8,1.1-1.4l0.2-0.7
			c0.1-0.3,0.3-0.5,0.5-0.7c0.2-0.2,0.5-0.2,0.8-0.2c1,0,1.4,0.5,1.4,1.4c0,1.2-0.6,2.3-1.9,3.3c-1.2,0.9-2.6,1.4-4.2,1.4
			c-2,0-3.6-0.7-4.7-2c-1.1-1.3-1.7-3-1.7-5.2c0-2.2,0.6-4,1.8-5.4c1.2-1.4,2.8-2.1,4.8-2.1c0.9,0,1.7,0.1,2.5,0.4
			c0.7,0.3,1.4,0.7,1.9,1.3C273.3,375.2,273.9,376.7,273.9,378.5z M270.9,377.8c0-0.8-0.3-1.5-0.9-2.1c-0.6-0.6-1.4-0.9-2.1-0.9
			c-0.8,0-1.6,0.3-2.4,1c-0.7,0.6-1,1.3-1,2.1H270.9z"/>
		<path class="st2" d="M280.7,378.3h5.8v-1.7c0-0.6,0-1.1-0.1-1.3c0-0.2-0.1-0.3-0.2-0.3c0,0-0.1,0-0.2,0c-0.1,0-0.2,0-0.3,0.1
			c-0.1,0-0.2,0.1-0.3,0.1c-0.1,0-0.2,0-0.4,0c-0.8,0-1.2-0.4-1.2-1.3c0-0.8,0.5-1.2,1.5-1.2c0.1,0,0.2,0,0.2,0c0,0,0.1,0,0.2,0
			c0.2,0,0.6,0.1,0.9,0.1c0.4,0,0.8,0.1,1.3,0.1c0.2,0,0.5,0,0.9,0c0.4,0,0.7-0.1,1.1-0.1c0.2,0,0.4-0.1,0.5-0.1c0.2,0,0.3,0,0.3,0
			c1,0,1.5,0.4,1.5,1.2c0,0.8-0.4,1.2-1.3,1.2c-0.1,0-0.2,0-0.2,0c-0.1,0-0.1,0-0.2,0c-0.1,0-0.2-0.1-0.4-0.1c-0.1,0-0.2,0-0.3,0
			c-0.1,0-0.3,0.1-0.3,0.3c-0.1,0.2-0.1,0.6-0.1,1.3v6.1c0,0.6,0,1.1,0.1,1.3c0,0.2,0.1,0.3,0.2,0.3c0,0,0.1,0,0.2,0
			c0.1,0,0.2,0,0.3-0.1c0.1,0,0.2-0.1,0.3-0.1c0.1,0,0.2,0,0.4,0c0.8,0,1.2,0.4,1.2,1.2c0,0.8-0.5,1.2-1.5,1.2c-0.1,0-0.2,0-0.2,0
			c0,0-0.1,0-0.2,0c-0.2,0-0.5-0.1-0.9-0.1c-0.4,0-0.8-0.1-1.3-0.1c-0.2,0-0.5,0-0.9,0.1c-0.4,0-0.7,0.1-1,0.1
			c-0.2,0-0.4,0.1-0.5,0.1c-0.2,0-0.3,0-0.3,0c-1,0-1.5-0.4-1.5-1.3c0-0.8,0.4-1.2,1.3-1.2c0.1,0,0.2,0,0.2,0c0.1,0,0.1,0,0.2,0
			c0.1,0,0.2,0.1,0.4,0.1c0.1,0,0.3,0,0.3,0c0.1,0,0.3-0.1,0.3-0.3c0.1-0.2,0.1-0.6,0.1-1.3v-1.9h-5.8v1.9c0,0.6,0,1,0.1,1.3
			c0.1,0.2,0.2,0.3,0.3,0.3c0.1,0,0.2,0,0.3,0c0.1,0,0.3,0,0.4-0.1c0.1,0,0.2,0,0.2,0c0.1,0,0.1,0,0.2,0c0.8,0,1.3,0.4,1.3,1.2
			c0,0.8-0.5,1.3-1.5,1.3c-0.1,0-0.2,0-0.3,0c-0.2,0-0.3,0-0.5-0.1c-0.3,0-0.7-0.1-1-0.1c-0.4,0-0.7-0.1-0.9-0.1
			c-0.5,0-0.9,0-1.3,0.1c-0.4,0-0.7,0.1-0.9,0.1c-0.1,0-0.2,0-0.2,0c0,0-0.1,0-0.2,0c-1,0-1.5-0.4-1.5-1.2c0-0.8,0.4-1.2,1.2-1.2
			c0.1,0,0.3,0,0.4,0c0.1,0,0.2,0,0.3,0.1c0.1,0,0.2,0,0.3,0.1c0.1,0,0.2,0,0.2,0c0.1,0,0.2-0.1,0.2-0.3c0-0.2,0.1-0.6,0.1-1.3v-6.1
			c0-0.6,0-1-0.1-1.3c-0.1-0.2-0.2-0.3-0.3-0.3c-0.1,0-0.2,0-0.4,0c-0.1,0-0.3,0-0.4,0.1c-0.1,0-0.1,0-0.2,0c-0.1,0-0.1,0-0.2,0
			c-0.8,0-1.3-0.4-1.3-1.2c0-0.8,0.5-1.2,1.5-1.2c0.1,0,0.2,0,0.3,0c0.2,0,0.3,0,0.5,0.1c0.3,0,0.7,0.1,1.1,0.1c0.4,0,0.7,0,0.9,0
			c0.5,0,0.9,0,1.3-0.1c0.4,0,0.7-0.1,0.9-0.1c0.1,0,0.1,0,0.2,0c0,0,0.1,0,0.2,0c1,0,1.5,0.4,1.5,1.2c0,0.8-0.4,1.3-1.3,1.3
			c-0.1,0-0.3,0-0.4,0c-0.1,0-0.2,0-0.3-0.1c-0.1,0-0.2-0.1-0.3-0.1c-0.1,0-0.1,0-0.2,0c-0.1,0-0.2,0.1-0.2,0.3
			c0,0.2-0.1,0.7-0.1,1.3V378.3z"/>
		<path class="st2" d="M307.4,382.7c0,0.5,0,0.9,0.1,1.2c0.1,0.2,0.2,0.4,0.4,0.4c0.1,0,0.2,0,0.3,0c0.1,0,0.2,0,0.3,0
			c0.1,0,0.2-0.1,0.4-0.1c0.5,0,0.9,0.1,1.2,0.4c0.3,0.3,0.4,0.6,0.4,1c0,0.1,0,0.3,0,0.5c0,0.2,0,0.4-0.1,0.6
			c0,0.2-0.1,0.4-0.1,0.6c0,0.2,0,0.3,0,0.4c0,0.1,0,0.2,0,0.3c0,0.1,0,0.2,0,0.3c0,0.1,0,0.3,0,0.4c0,0.1,0,0.3,0,0.5
			c0,0.4-0.1,0.7-0.4,0.9c-0.2,0.2-0.6,0.3-0.9,0.3c-0.9,0-1.3-0.4-1.3-1.3c0,0,0-0.1,0-0.3c0-0.2,0-0.3,0.1-0.5c0-0.1,0-0.3,0-0.4
			c0-0.1,0-0.2,0-0.2c0-0.3,0-0.5,0-0.7c0-0.2-0.1-0.3-0.2-0.4c-0.1-0.1-0.2-0.2-0.4-0.2c-0.2,0-0.4,0-0.7,0h-9.2
			c-0.2,0-0.5,0-0.9,0.1c-0.4,0-0.7,0.1-1.1,0.1c-0.2,0-0.4,0.1-0.5,0.1c-0.2,0-0.3,0-0.3,0c-1,0-1.5-0.4-1.5-1.3
			c0-0.8,0.4-1.2,1.3-1.2c0.1,0,0.2,0,0.2,0c0.1,0,0.1,0,0.2,0c0.2,0.1,0.5,0.1,0.7,0.1c0.1,0,0.3-0.1,0.3-0.3
			c0.1-0.2,0.1-0.6,0.1-1.3v-6.1c0-0.6,0-1.1-0.1-1.3c0-0.2-0.1-0.3-0.2-0.3c0,0-0.1,0-0.2,0c-0.1,0-0.2,0-0.3,0.1
			c-0.1,0-0.2,0.1-0.3,0.1s-0.2,0-0.4,0c-0.8,0-1.2-0.4-1.2-1.3c0-0.8,0.5-1.2,1.5-1.2c0.1,0,0.2,0,0.2,0c0,0,0.1,0,0.2,0
			c0.2,0,0.5,0.1,0.9,0.1c0.4,0,0.8,0.1,1.3,0.1c0.2,0,0.5,0,0.9,0c0.4,0,0.7-0.1,1-0.1c0.2,0,0.4-0.1,0.5-0.1c0.2,0,0.3,0,0.3,0
			c1,0,1.5,0.4,1.5,1.2c0,0.8-0.4,1.2-1.3,1.2c-0.1,0-0.2,0-0.2,0c-0.1,0-0.1,0-0.2,0c-0.1,0-0.2-0.1-0.4-0.1c-0.1,0-0.2,0-0.3,0
			c-0.1,0-0.3,0.1-0.3,0.3c-0.1,0.2-0.1,0.6-0.1,1.3v6.1c0,0.4,0,0.7,0,0.9c0,0.2,0.1,0.3,0.2,0.3h5.3c0.1,0,0.2-0.1,0.2-0.3
			c0-0.2,0-0.5,0-0.9v-6.1c0-0.6,0-1-0.1-1.3c-0.1-0.2-0.2-0.3-0.3-0.3c-0.1,0-0.2,0-0.4,0c-0.1,0-0.3,0-0.4,0.1c-0.1,0-0.2,0-0.2,0
			c-0.1,0-0.1,0-0.2,0c-0.9,0-1.3-0.4-1.3-1.2c0-0.8,0.5-1.2,1.5-1.2c0.1,0,0.2,0,0.3,0c0.2,0,0.3,0,0.5,0.1c0.3,0,0.7,0.1,1,0.1
			c0.4,0,0.7,0,0.9,0c0.5,0,0.9,0,1.3-0.1c0.4,0,0.7-0.1,0.9-0.1c0.1,0,0.2,0,0.2,0c0,0,0.1,0,0.2,0c1,0,1.5,0.4,1.5,1.2
			c0,0.8-0.4,1.3-1.2,1.3c-0.1,0-0.3,0-0.4,0c-0.1,0-0.2,0-0.3-0.1c-0.1,0-0.2-0.1-0.3-0.1c-0.1,0-0.2,0-0.2,0
			c-0.1,0-0.2,0.1-0.2,0.3c0,0.2-0.1,0.7-0.1,1.3V382.7z"/>
		<path class="st2" d="M322.2,375c-0.1,0-0.2,0-0.3,0c-0.1,0-0.3,0-0.4,0.1c-0.1,0-0.2,0-0.2,0c-0.1,0-0.1,0-0.2,0
			c-0.9,0-1.3-0.4-1.3-1.2c0-0.8,0.5-1.2,1.5-1.2c0.1,0,0.2,0,0.3,0c0.2,0,0.3,0,0.5,0.1c0.3,0,0.7,0.1,1.1,0.1c0.4,0,0.7,0,0.9,0
			c0.5,0,0.9,0,1.3-0.1c0.4,0,0.7-0.1,0.9-0.1c0.1,0,0.2,0,0.2,0c0,0,0.1,0,0.2,0c1,0,1.5,0.4,1.5,1.2c0,0.8-0.4,1.3-1.2,1.3
			c-0.1,0-0.3,0-0.4,0c-0.1,0-0.2,0-0.3-0.1c-0.1,0-0.2-0.1-0.3-0.1c-0.1,0-0.1,0-0.2,0c-0.1,0-0.2,0.1-0.2,0.3s-0.1,0.7-0.1,1.3
			v6.1c0,0.6,0,1.1,0.1,1.3c0,0.2,0.1,0.3,0.2,0.3c0,0,0.1,0,0.2,0c0.1,0,0.2,0,0.3-0.1c0.1,0,0.2-0.1,0.3-0.1c0.1,0,0.2,0,0.4,0
			c0.8,0,1.2,0.4,1.2,1.2c0,0.8-0.5,1.2-1.5,1.2c-0.1,0-0.2,0-0.2,0c0,0-0.1,0-0.2,0c-0.2,0-0.6-0.1-0.9-0.1c-0.4,0-0.8-0.1-1.3-0.1
			c-0.2,0-0.5,0-0.9,0.1c-0.4,0-0.7,0.1-1.1,0.1c-0.2,0-0.4,0.1-0.5,0.1c-0.2,0-0.3,0-0.3,0c-1,0-1.5-0.4-1.5-1.3
			c0-0.8,0.4-1.2,1.3-1.2c0.1,0,0.2,0,0.2,0c0.1,0,0.1,0,0.2,0c0.1,0,0.2,0.1,0.4,0.1c0.1,0,0.3,0,0.3,0c0.1,0,0.3-0.1,0.3-0.3
			c0.1-0.2,0.1-0.6,0.1-1.3v-3.9l-5.1,4.5c-0.2,0.2-0.3,0.3-0.4,0.4c-0.1,0.1-0.1,0.2-0.1,0.4c0,0.1,0,0.1,0.1,0.1c0,0,0.1,0,0.2,0
			c0.1,0,0.2,0,0.3-0.1c0.1,0,0.2-0.1,0.3-0.1c0.1,0,0.2,0,0.4,0c0.8,0,1.3,0.4,1.3,1.2c0,0.8-0.5,1.2-1.5,1.2c-0.1,0-0.2,0-0.2,0
			c0,0-0.1,0-0.2,0c-0.2,0-0.5-0.1-0.9-0.1c-0.4,0-0.8-0.1-1.3-0.1c-0.2,0-0.5,0-0.9,0.1c-0.4,0-0.7,0.1-1.1,0.1
			c-0.2,0-0.4,0.1-0.5,0.1c-0.2,0-0.3,0-0.3,0c-1,0-1.5-0.4-1.5-1.3c0-0.8,0.4-1.2,1.3-1.2c0.1,0,0.2,0,0.2,0c0.1,0,0.1,0,0.2,0
			c0.2,0.1,0.5,0.1,0.7,0.1c0.1,0,0.2-0.1,0.3-0.3c0.1-0.2,0.1-0.6,0.1-1.3v-6.1c0-0.6,0-1-0.1-1.3c-0.1-0.2-0.2-0.3-0.3-0.3
			c-0.1,0-0.2,0-0.4,0c-0.1,0-0.3,0-0.4,0.1c-0.1,0-0.1,0-0.2,0c-0.1,0-0.1,0-0.2,0c-0.8,0-1.3-0.4-1.3-1.2c0-0.8,0.5-1.2,1.5-1.2
			c0,0,0.1,0,0.3,0c0.2,0,0.3,0,0.5,0.1c0.3,0,0.7,0.1,1.1,0.1c0.4,0,0.7,0,0.9,0c0.5,0,0.9,0,1.3-0.1c0.4,0,0.7-0.1,0.9-0.1
			c0.1,0,0.2,0,0.2,0c0,0,0.1,0,0.2,0c1,0,1.5,0.4,1.5,1.2c0,0.8-0.4,1.3-1.3,1.3c-0.1,0-0.3,0-0.4,0s-0.2,0-0.3-0.1
			c-0.1,0-0.2-0.1-0.3-0.1c-0.1,0-0.1,0-0.2,0c-0.1,0-0.2,0.1-0.2,0.3c0,0.2-0.1,0.7-0.1,1.3v4.2l5.3-4.8c0.1-0.1,0.2-0.2,0.3-0.3
			c0-0.1,0.1-0.2,0.1-0.4c0-0.1,0-0.2-0.1-0.2C322.4,375,322.3,375,322.2,375z"/>
		<path class="st2" d="M333.1,382.4c0-0.6,0.1-1.1,0.3-1.5c0.2-0.4,0.4-0.8,0.8-1.1c-0.6-0.3-1.1-0.8-1.5-1.3
			c-0.3-0.5-0.5-1.2-0.5-2c0-1.1,0.4-2,1.3-2.7c0.9-0.7,2.2-1,3.9-1c0.6,0,1.2,0,1.7,0c0.5,0,1,0,1.5,0.1c0.3,0,0.6,0,0.8,0.1
			c0.3,0,0.5,0,0.7,0c0.4,0,0.8,0,1.2-0.1c0.2,0,0.4-0.1,0.7-0.1c0.2,0,0.5,0,0.8,0c0.5,0,0.9,0.1,1.1,0.3c0.2,0.2,0.3,0.5,0.3,1
			c0,0.3-0.1,0.6-0.3,0.8c-0.2,0.2-0.5,0.4-0.9,0.4c-0.2,0-0.4,0-0.5,0c-0.1,0-0.2,0-0.3-0.1c-0.1,0-0.2,0-0.3,0c-0.1,0-0.2,0-0.3,0
			c-0.1,0-0.1,0-0.2,0.1c0,0.1-0.1,0.2-0.1,0.4c0,0.2-0.1,0.5-0.1,0.9c0,0.4,0,0.9,0,1.6v4.7c0,0.6,0,1,0.1,1.3
			c0.1,0.2,0.2,0.3,0.3,0.3c0.2,0,0.5,0,0.7-0.1c0.1,0,0.2,0,0.2,0c0,0,0.1,0,0.3,0c0.8,0,1.3,0.4,1.3,1.2c0,0.8-0.5,1.3-1.5,1.3
			c0,0-0.1,0-0.3,0c-0.2,0-0.3,0-0.5-0.1c-0.3,0-0.7-0.1-1.1-0.1c-0.4,0-0.7-0.1-0.9-0.1c-0.5,0-0.9,0-1.3,0.1
			c-0.4,0-0.7,0.1-0.9,0.1c-0.1,0-0.2,0-0.2,0c0,0-0.1,0-0.2,0c-1,0-1.5-0.4-1.5-1.2c0-0.8,0.4-1.2,1.3-1.2c0.1,0,0.3,0,0.4,0
			c0.1,0,0.2,0,0.3,0.1c0.1,0,0.2,0,0.3,0.1c0.1,0,0.2,0,0.2,0c0.1,0,0.2-0.1,0.2-0.3c0-0.2,0.1-0.6,0.1-1.3V381
			c0-0.3-0.3-0.4-0.9-0.4h-2c-0.5,0-0.9,0.2-1.3,0.5c-0.3,0.3-0.5,0.7-0.5,1.3c0,0.1,0,0.3,0,0.4c0,0.1,0,0.3,0,0.4v0.7
			c0,1-0.2,1.8-0.7,2.2c-0.5,0.4-1.2,0.7-2.2,0.7c-2.1,0-3.1-1-3.1-2.9v-2c0-0.8,0.4-1.2,1.3-1.2c0.8,0,1.3,0.4,1.3,1.2v1.3
			c0,0.9,0.2,1.3,0.5,1.3c0.2,0,0.3-0.1,0.4-0.3c0.1-0.2,0.1-0.4,0.1-0.7c0-0.1,0-0.2,0-0.2c0-0.1,0-0.2,0-0.3V382.4z M340.5,375.9
			c0-0.2,0-0.4-0.1-0.5c-0.1-0.1-0.2-0.2-0.4-0.3c-0.2-0.1-0.4-0.1-0.8-0.2c-0.3,0-0.8-0.1-1.4-0.1c-1,0-1.7,0.2-2,0.5
			c-0.4,0.3-0.5,0.8-0.5,1.3c0,0.6,0.2,1,0.7,1.3c0.5,0.3,1.3,0.5,2.5,0.5h1.2c0.4,0,0.6-0.1,0.7-0.2c0.1-0.1,0.1-0.4,0.1-0.9V375.9
			z"/>
	</g>
	<g>
		<g>
			<path class="st2" d="M155.4,328.7h16.4c1.8,0,3.1-1.5,3.1-3.3c0-1.8-1.3-3.2-3.1-3.2h-16.4v-11.3h18.9c7.3,0,13.3,5.8,13.3,14.4
				c0,8.6-6,14.7-13.2,14.7h-6.4v17.8h-12.5V328.7z"/>
			<path class="st2" d="M241.4,357.8h-49.4v-11.3h5.7l6.2-17.8h13l-6.3,17.8h12.6l-12.4-35.7h12.9l12.5,35.7h5.1V357.8z"/>
			<path class="st2" d="M246.2,328.7l15.6-17.8h14.9l-20.5,23.6l20.4,23.4h-14.9L246.2,340V328.7z"/>
			<path class="st2" d="M296.9,357.8h-13.6l20.8-47.6l8.5,12.1L296.9,357.8z M325.1,310.2l21,47.6h-13l-7.7-16.9l-7.6,16.9
				l-8.6-11.2L325.1,310.2z"/>
		</g>
	</g>
</g>
</svg>
