<?xml version="1.0" encoding="utf-8"?>
<!-- Generator: Adobe Illustrator 22.1.0, SVG Export Plug-In . SVG Version: 6.00 Build 0)  -->
<svg version="1.1" id="Layer_1" xmlns="http://www.w3.org/2000/svg" xmlns:xlink="http://www.w3.org/1999/xlink" x="0px" y="0px"
	 viewBox="0 0 500 500" style="enable-background:new 0 0 500 500;" xml:space="preserve">
<style type="text/css">
	.st0{fill:#FFFFFF;}
	.st1{fill-rule:evenodd;clip-rule:evenodd;fill:#EDAA0E;}
	.st2{fill-rule:evenodd;clip-rule:evenodd;fill:#C70007;}
	.st3{fill:#2E58A6;}
</style>
<rect class="st0" width="500" height="500"/>
<g>
	<g>
		<path class="st1" d="M306.9,202.3c15.7-11.1,18.5-23.6,8.7-36.5c-4.7-6.1-11.6-7.5-14.2-12.2c-4.1-7.8,2.3-17.4,12.6-16.3
			C333.3,139,346.7,176,306.9,202.3L306.9,202.3z"/>
		<path class="st2" d="M325.5,182.2c7.8-12.9,6.5-27.8,2.3-36.2c47.5,69.5-2.8,156.3-90.1,149.9c-0.9-5.5-0.8-11.7,2.6-15.9
			c24.9,2.4,49.3-4.7,69.7-21.6c19-17.7,26.9-40.6,24-68.8c-2.8,5.2-6.8,10.1-11.6,14.5l6.8,10.6c0.6,1,0.4,2.4-0.6,3.1l0,0
			c-1,0.6-2.4,0.4-3.1-0.6l-6.4-10c-2.7,2.2-5.5,4.3-8.4,6.5l11.6,18c0.6,1,0.4,2.4-0.6,3.1l0,0c-1,0.6-2.4,0.4-3.1-0.6L307,216.3
			c-3.2,2.2-6.5,4.3-10,6.5l14.3,22.2c0.8,1.1,0.4,2.7-0.8,3.3l0,0c-1,0.8-2.6,0.4-3.3-0.6l-14.3-22.3c-3.7,2.3-7.5,4.6-11.4,6.8
			l16.1,25c0.9,1.3,0.5,2.9-0.8,3.7l0,0c-1.3,0.9-2.9,0.5-3.8-0.8L277,234.9c-4.5,2.7-8.7,5.4-12.9,8l13.7,21.3
			c0.8,1.1,0.4,2.6-0.6,3.3l0,0c-1.1,0.6-2.7,0.4-3.3-0.8l-13.7-21.2c-4,2.7-7.8,5.5-11.2,8.3l10.3,16.1c0.6,1,0.4,2.3-0.6,3.1l0,0
			c-1,0.6-2.4,0.3-3.1-0.8l-10.1-15.6c-13.8,12.3-22,26.4-16.3,44.7c-26.7,0.1-19-31.3-6.4-46.2
			C252.1,220.3,307.4,215.9,325.5,182.2L325.5,182.2z"/>
		<path class="st2" d="M195.2,202.3c-15.6,11.1-18.4,23.5-8.5,36.4c4.7,6.1,11.6,7.7,14,12.2c4.2,7.8-2.2,17.4-12.5,16.3
			C168.9,265.4,155.4,228.4,195.2,202.3L195.2,202.3z"/>
		<path class="st1" d="M176.7,222.2c-7.8,13-6.5,27.8-2.3,36.4c-47.5-69.7,2.7-156.3,90.1-150.1c0.9,5.5,0.8,11.7-2.6,16
			c-24.9-2.4-49.4,4.8-69.8,21.7c-18.9,17.6-26.9,40.6-24,68.7c2.8-5.2,6.9-10,11.7-14.5l-6.9-10.6c-0.6-1-0.3-2.4,0.8-3.1l0,0
			c1-0.6,2.3-0.4,2.9,0.6l6.5,10.1c2.6-2.3,5.4-4.5,8.3-6.6l-11.6-18c-0.6-1-0.3-2.3,0.8-2.9l0,0c1-0.8,2.3-0.4,2.9,0.6l11.6,17.9
			c3.2-2.3,6.5-4.5,10-6.6l-14.3-22.2c-0.8-1.1-0.4-2.5,0.6-3.3l0,0c1.1-0.6,2.7-0.4,3.3,0.8l14.4,22.2c3.7-2.3,7.5-4.5,11.2-6.8
			l-16.1-25c-0.8-1.3-0.4-2.9,0.9-3.7l0,0c1.3-0.9,2.9-0.5,3.7,0.8l16.2,25.1c4.3-2.7,8.7-5.4,12.9-8l-13.8-21.3
			c-0.6-1-0.4-2.6,0.8-3.3l0,0c1.1-0.6,2.6-0.4,3.3,0.8l13.7,21.2c4-2.7,7.8-5.4,11.2-8.3l-10.3-16.1c-0.6-1-0.4-2.3,0.6-2.9l0,0
			c1-0.6,2.3-0.4,3.1,0.6l10,15.6c13.9-12.2,22-26.3,16.5-44.7c26.5-0.1,19,31.3,6.4,46.3C250.1,184.3,194.8,188.6,176.7,222.2
			L176.7,222.2z"/>
	</g>
	<g>
		<g>
			<path class="st3" d="M152.4,331.6h17c1.8,0,3.2-1.5,3.2-3.4c0-1.9-1.4-3.4-3.2-3.4h-17V313H172c7.6,0,13.9,6,13.8,15
				c0,9-6.3,15.3-13.7,15.3h-6.7v18.6h-13V331.6z"/>
			<path class="st3" d="M241.9,361.9h-51.3v-11.8h5.9l6.5-18.6h13.5l-6.5,18.6h13.1L210.2,313h13.4l13,37.1h5.3V361.9z"/>
			<path class="st3" d="M246.9,331.6l16.2-18.6h15.5l-21.3,24.5l21.2,24.4H263l-16.1-18.6V331.6z"/>
			<path class="st3" d="M299.6,361.9h-14.1l21.7-49.5l8.9,12.5L299.6,361.9z M328.9,312.4l21.9,49.5h-13.5l-8.1-17.6l-7.9,17.6
				l-9-11.7L328.9,312.4z"/>
		</g>
	</g>
	<g>
		<path class="st3" d="M160.8,377.9c0-0.6,0.1-1,0.4-1.4c0.3-0.4,0.7-0.6,1.3-0.7c-0.4-1.2-1.5-1.8-3.2-1.8c-1.5,0-2.7,0.6-3.6,1.9
			c-0.9,1.3-1.4,2.9-1.4,5c0,2.2,0.4,3.9,1.3,5.1c0.9,1.2,2.1,1.8,3.6,1.8c0.9,0,1.7-0.3,2.4-0.8c0.7-0.5,1.2-1.3,1.4-2.3l0.5-1.6
			c0.4-0.7,1-1,1.8-1c0.6,0,1.1,0.2,1.5,0.5c0.4,0.4,0.6,0.8,0.6,1.4c0,0.7-0.2,1.5-0.7,2.4c-0.4,0.9-1,1.7-1.5,2.4
			c-0.8,0.8-1.7,1.4-2.7,1.8c-1,0.4-2.2,0.7-3.4,0.7c-2.7,0-4.9-1-6.6-2.9c-1.6-1.8-2.4-4.3-2.4-7.3c0-3.2,0.8-5.7,2.5-7.7
			c1.7-2,4-3,6.8-3c2.1,0,3.9,0.6,5.4,1.7c1.4,1.2,2.1,2.7,2.1,4.5c0,1.1-0.3,1.9-0.9,2.6c-0.6,0.7-1.4,1-2.4,1
			c-0.8,0-1.4-0.2-2-0.7C161.1,379.2,160.8,378.6,160.8,377.9z"/>
		<path class="st3" d="M179.2,391.3c-2.8,0-5-1-6.7-2.9c-1.7-1.9-2.5-4.4-2.5-7.5c0-3.2,0.8-5.7,2.5-7.5c1.7-1.9,3.9-2.9,6.8-2.9
			c2.9,0,5.1,0.9,6.8,2.8c1.6,1.8,2.5,4.3,2.5,7.5c0,3.2-0.8,5.7-2.5,7.6C184.3,390.3,182.1,391.3,179.2,391.3z M179.4,374
			c-1.6,0-2.8,0.6-3.7,1.7c-0.9,1.1-1.3,2.7-1.4,4.8v0.4c0,2.2,0.4,3.9,1.3,5.1c0.9,1.2,2.1,1.8,3.6,1.8c1.6,0,2.8-0.6,3.8-1.8
			c0.9-1.2,1.4-2.9,1.4-5.1C184.4,376.3,182.7,374,179.4,374z"/>
		<path class="st3" d="M196.6,371.2c1,0,1.5,0.4,1.7,1.2c1.4-1.2,3.2-1.9,5.3-1.9c1.5,0,2.8,0.4,4.1,1.1h0c1.4,0.8,2.3,1.7,2.7,2.8
			c0.4,0.9,0.6,2.1,0.6,3.5v7v1.8c0,0.4,0.1,0.7,0.3,0.8c0.1,0,0.3,0,0.5,0c0.2,0,0.4,0,0.5-0.1c0.1,0,0.2,0,0.4-0.1
			c0.1,0,0.2,0,0.4,0c0.5,0,0.9,0.2,1.2,0.5c0.4,0.3,0.5,0.7,0.5,1.2c0,0.5-0.2,1-0.6,1.3c-0.4,0.4-0.9,0.5-1.5,0.5
			c-0.1,0-0.3,0-0.6,0c-0.3,0-0.6,0-0.8-0.1c-0.4-0.1-0.8-0.1-1.3-0.1c-0.5,0-0.9-0.1-1.2-0.1c-0.3,0-0.5,0-0.8,0
			c-0.3,0-0.5,0-0.7,0.1c-0.6,0.1-1,0.1-1.4,0.2c-0.4,0-0.6,0.1-0.6,0.1c-1.4,0-2.1-0.6-2.1-1.8c0-1.1,0.6-1.6,1.9-1.6
			c0.1,0,0.2,0,0.3,0c0.1,0,0.2,0,0.3,0c0.1,0,0.2,0,0.3,0c0.1,0,0.2,0,0.3,0.1c0.1,0,0.1,0,0.2,0c0.1,0,0.1,0,0.2,0
			c0.2,0,0.3-0.5,0.3-1.5c0-0.3,0-0.6,0-1c0-0.3,0-0.6,0-1l0-2.2v-2.8c0-1.2-0.1-2-0.2-2.6c-0.1-0.4-0.2-0.7-0.4-1.1
			c-0.2-0.3-0.5-0.6-0.7-0.8v0c-0.8-0.5-1.5-0.8-2.4-0.8c-1.7,0-3,0.6-3.7,1.8c-0.5,0.9-0.8,2.4-0.8,4.7v4.9c0,0.9,0,1.5,0.1,1.8
			c0.1,0.3,0.2,0.5,0.3,0.5c0,0,0.1,0,0.2,0c0.1,0,0.3-0.1,0.4-0.1c0.2-0.1,0.3-0.1,0.4-0.1c0.1,0,0.3,0,0.5,0
			c1.2,0,1.8,0.6,1.8,1.8s-0.7,1.8-2.1,1.8c-0.1,0-0.4,0-0.8-0.1c-0.4-0.1-0.8-0.1-1.3-0.2c-0.5-0.1-1.1-0.1-1.7-0.1
			c-0.2,0-0.5,0-0.8,0c-0.3,0-0.7,0.1-1.2,0.1l-0.9,0.1c-0.2,0.1-0.5,0.1-0.7,0.1c-0.2,0-0.3,0-0.4,0c-1.5,0-2.2-0.6-2.2-1.8
			c0-1.1,0.6-1.7,1.8-1.7c0.1,0,0.2,0,0.3,0c0.1,0,0.2,0,0.3,0.1c0.3,0.1,0.7,0.1,1.1,0.1c0.3,0,0.5-0.5,0.5-1.6c0-0.7,0-1.4,0-2.1
			c0-0.7,0-1.4,0-2.1v-4.5l-0.1-1.3c-0.1-0.6-0.1-1-0.2-1.2c-0.1-0.2-0.1-0.4-0.3-0.4c-0.1,0-0.2,0-0.4,0.1c-0.2,0-0.3,0-0.4,0.1
			c-0.2,0-0.3,0-0.4,0.1c-0.1,0-0.3,0-0.4,0c-1.3,0-2-0.6-2-1.7c0-1.1,0.8-1.7,2.3-1.7c0.1,0,0.2,0,0.3,0c0.1,0,0.1,0,0.3,0.1
			l1.3,0.2c0.1,0,0.3,0,0.4,0c0.2,0,0.3,0,0.5-0.1c0.2,0,0.4,0,0.5-0.1C196.2,371.2,196.4,371.2,196.6,371.2z"/>
		<path class="st3" d="M227.1,368.3c0-0.3,0.1-0.6,0.2-0.8c-0.3-0.1-0.6-0.2-1.1-0.2c-0.8,0-1.5,0.3-2,0.9c-0.5,0.6-0.8,1.4-0.8,2.5
			v0.6h2.7c1.3,0,1.9,0.6,1.9,1.8c0,1.2-0.6,1.8-1.9,1.8h-2.7v12c0,0.4,0.1,0.5,0.4,0.5c0,0,0,0,0.2,0c0.1,0,0.3-0.1,0.6-0.1
			c0.1,0,0.2,0,0.3,0c0.1,0,0.2,0,0.4,0c0.1,0,0.2,0,0.2,0c1.3,0,1.9,0.6,1.9,1.7c0,1.2-0.7,1.8-2.1,1.8c-0.2,0-0.5,0-0.9,0
			c-0.3,0-0.7-0.1-1.1-0.1c-0.4-0.1-0.8-0.1-1.1-0.1c-0.3,0-0.5,0-0.7,0c-0.7,0-1.3,0-1.9,0.1c-0.5,0.1-0.9,0.1-1.2,0.1
			c-0.3,0-0.5,0.1-0.7,0.1c-1.5,0-2.2-0.6-2.2-1.8c0-0.4,0.2-0.8,0.6-1.2c0.4-0.4,0.8-0.5,1.3-0.5c0.2,0,0.4,0,0.5,0
			c0.1,0,0.3,0.1,0.4,0.1c0.1,0.1,0.3,0.1,0.4,0.1c0.1,0,0.2,0,0.3,0c0.1,0,0.2-0.2,0.2-0.5c0.1-0.6,0.2-2,0.2-4.2
			c0-1.3,0-2.6,0-3.9c0-1.3,0-2.6,0-3.9c0-0.1,0-0.2,0-0.2h-1.8c-1.3,0-1.9-0.6-1.9-1.9c0-1.2,0.7-1.8,2-1.8h2v-0.6
			c0-2.1,0.6-3.7,1.7-4.9c1.1-1.1,2.8-1.7,4.9-1.7c1.7,0,3.1,0.4,4.2,1.1c1.1,0.7,1.6,1.7,1.6,2.9c0,0.7-0.2,1.2-0.7,1.7
			c-0.5,0.4-1,0.7-1.7,0.7c-0.7,0-1.2-0.2-1.7-0.6C227.4,369.4,227.1,368.9,227.1,368.3z"/>
		<path class="st3" d="M246.8,379.3c0,0.6,0,1.1,0,1.4c0,0.3-0.1,0.6-0.2,0.8c-0.1,0.2-0.3,0.3-0.6,0.3c-0.2,0-0.6,0.1-1,0.1h-11.8
			c-0.1,0-0.2,0-0.2,0c0,1.7,0.5,3.2,1.5,4.3c1,1.1,2.2,1.7,3.6,1.7c1,0,1.8-0.3,2.6-0.8c0.8-0.5,1.3-1.2,1.5-2l0.4-1.1
			c0.2-0.4,0.4-0.7,0.7-0.9c0.3-0.2,0.7-0.4,1.1-0.4c1.4,0,2,0.7,2,2c0,1.8-0.9,3.3-2.7,4.7c-1.7,1.3-3.7,2-5.9,2
			c-2.8,0-5-0.9-6.7-2.8c-1.6-1.8-2.4-4.3-2.4-7.3c0-3.1,0.9-5.6,2.6-7.7c1.7-2,4-3,6.8-3c1.3,0,2.5,0.2,3.5,0.6
			c1,0.4,1.9,1,2.7,1.8C246,374.7,246.8,376.8,246.8,379.3z M242.5,378.3c0-1.2-0.4-2.2-1.3-3c-0.9-0.9-1.9-1.3-3-1.3
			c-1.1,0-2.3,0.5-3.4,1.4c-1,0.9-1.5,1.9-1.5,2.9H242.5z"/>
		<path class="st3" d="M254.6,371.2c0.9,0,1.4,0.3,1.5,1c1.3-1.1,2.8-1.7,4.6-1.7c1,0,1.8,0.1,2.6,0.4c0.8,0.3,1.5,0.7,2,1.2
			c0.6,0.5,1,1.1,1.3,1.8c0.3,0.7,0.5,1.5,0.5,2.3c0,1.3-0.3,2.3-1,3c-0.7,0.8-1.5,1.2-2.6,1.2c-0.8,0-1.4-0.2-1.9-0.7
			c-0.5-0.4-0.8-1-0.8-1.6c0-0.5,0.2-1,0.6-1.4c0.4-0.4,0.9-0.6,1.5-0.6c0.1,0,0,0,0,0c-0.1,0,0,0,0.1,0v-0.2c0-0.6-0.3-1.1-0.8-1.4
			c-0.5-0.4-1.1-0.6-1.9-0.6c-1.6,0-2.7,0.8-3.3,2.3c-0.4,1-0.5,2.6-0.5,4.6v2.5c0,0.8,0,1.4,0,1.8c0,0.4,0,0.7,0,0.8
			c0.1,1.1,0.3,1.7,0.5,1.7c0.2,0,0.3,0,0.4,0c0.1,0,0.3,0,0.4-0.1c0.3-0.1,0.6-0.2,0.9-0.2c1.2,0,1.8,0.6,1.8,1.7
			c0,1.2-0.7,1.8-2.1,1.8h-0.1c-0.2,0-0.5,0-0.8,0c-0.3,0-0.6-0.1-1-0.1c-0.8-0.1-1.3-0.1-1.6-0.1c-0.5,0-0.9,0-1.3,0
			c-0.4,0-0.7,0-1,0.1l-2.1,0.2c-1.4,0-2.1-0.6-2.1-1.8c0-1.1,0.7-1.6,2-1.6c0.1,0,0.2,0,0.3,0c0.1,0,0.2,0,0.3,0.1l0.5,0.1h0.3
			c0,0,0.1,0,0.1,0h0c0.2,0,0.4-0.4,0.4-1.2c0-0.3,0-0.6,0-0.9c0-0.3,0-0.6,0-0.9l-0.1-8.4c-0.1-1-0.2-1.5-0.4-1.6
			c-0.1,0-0.2,0-0.4,0c-0.2,0-0.4,0-0.4,0h0.1c-0.3,0.1-0.6,0.1-1,0.1c-1.2,0-1.8-0.6-1.8-1.7c0-1.2,0.7-1.8,2.2-1.8
			c0.1,0,0.2,0,0.5,0.1c0.3,0,0.5,0,0.7,0.1c0.2,0,0.4,0,0.6,0.1c0.2,0,0.3,0,0.4,0c0.1,0,0.1,0,0.2,0c0.1,0,0.2,0,0.3,0
			c0.1,0,0.1,0,0.1,0c0,0,0.1,0,0.2,0C254,371.2,254.3,371.2,254.6,371.2z"/>
		<path class="st3" d="M286.6,379.3c0,0.6,0,1.1,0,1.4c0,0.3-0.1,0.6-0.2,0.8c-0.1,0.2-0.3,0.3-0.6,0.3c-0.2,0-0.6,0.1-1,0.1h-11.8
			c-0.1,0-0.2,0-0.2,0c0,1.7,0.5,3.2,1.5,4.3c1,1.1,2.2,1.7,3.6,1.7c1,0,1.8-0.3,2.6-0.8c0.8-0.5,1.3-1.2,1.5-2l0.4-1.1
			c0.2-0.4,0.4-0.7,0.7-0.9c0.3-0.2,0.7-0.4,1.1-0.4c1.4,0,2,0.7,2,2c0,1.8-0.9,3.3-2.7,4.7c-1.7,1.3-3.7,2-5.9,2
			c-2.8,0-5-0.9-6.7-2.8c-1.6-1.8-2.4-4.3-2.4-7.3c0-3.1,0.9-5.6,2.6-7.7c1.7-2,4-3,6.8-3c1.3,0,2.5,0.2,3.5,0.6
			c1,0.4,1.9,1,2.7,1.8C285.8,374.7,286.6,376.8,286.6,379.3z M282.3,378.3c0-1.2-0.4-2.2-1.3-3c-0.9-0.9-1.9-1.3-3-1.3
			c-1.1,0-2.3,0.5-3.4,1.4c-1,0.9-1.5,1.9-1.5,2.9H282.3z"/>
		<path class="st3" d="M294.4,371.2c1,0,1.5,0.4,1.7,1.2c1.4-1.2,3.2-1.9,5.3-1.9c1.5,0,2.8,0.4,4.1,1.1h0c1.4,0.8,2.3,1.7,2.7,2.8
			c0.4,0.9,0.6,2.1,0.6,3.5v7v1.8c0,0.4,0.1,0.7,0.3,0.8c0.1,0,0.3,0,0.5,0c0.2,0,0.4,0,0.5-0.1c0.1,0,0.2,0,0.4-0.1
			c0.1,0,0.2,0,0.4,0c0.5,0,0.9,0.2,1.3,0.5c0.4,0.3,0.5,0.7,0.5,1.2c0,0.5-0.2,1-0.6,1.3c-0.4,0.4-0.9,0.5-1.5,0.5
			c-0.1,0-0.3,0-0.6,0c-0.3,0-0.6,0-0.8-0.1c-0.4-0.1-0.8-0.1-1.3-0.1c-0.5,0-0.9-0.1-1.2-0.1c-0.3,0-0.5,0-0.8,0
			c-0.3,0-0.5,0-0.7,0.1c-0.6,0.1-1,0.1-1.4,0.2c-0.4,0-0.6,0.1-0.6,0.1c-1.4,0-2.1-0.6-2.1-1.8c0-1.1,0.6-1.6,1.9-1.6
			c0.1,0,0.2,0,0.3,0c0.1,0,0.2,0,0.3,0c0.1,0,0.2,0,0.3,0c0.1,0,0.2,0,0.3,0.1c0.1,0,0.1,0,0.2,0c0.1,0,0.1,0,0.2,0
			c0.2,0,0.3-0.5,0.3-1.5c0-0.3,0-0.6,0-1c0-0.3,0-0.6,0-1l0-2.2v-2.8c0-1.2-0.1-2-0.2-2.6c-0.1-0.4-0.2-0.7-0.4-1.1
			c-0.2-0.3-0.5-0.6-0.7-0.8v0c-0.8-0.5-1.5-0.8-2.4-0.8c-1.7,0-3,0.6-3.7,1.8c-0.5,0.9-0.8,2.4-0.8,4.7v4.9c0,0.9,0,1.5,0.1,1.8
			c0.1,0.3,0.2,0.5,0.3,0.5c0,0,0.1,0,0.2,0c0.1,0,0.3-0.1,0.4-0.1c0.2-0.1,0.3-0.1,0.4-0.1c0.1,0,0.3,0,0.5,0
			c1.2,0,1.8,0.6,1.8,1.8s-0.7,1.8-2.1,1.8c-0.1,0-0.4,0-0.8-0.1c-0.4-0.1-0.8-0.1-1.3-0.2c-0.5-0.1-1.1-0.1-1.7-0.1
			c-0.2,0-0.5,0-0.8,0c-0.3,0-0.7,0.1-1.2,0.1l-0.9,0.1c-0.2,0.1-0.5,0.1-0.7,0.1c-0.2,0-0.3,0-0.4,0c-1.5,0-2.2-0.6-2.2-1.8
			c0-1.1,0.6-1.7,1.8-1.7c0.1,0,0.2,0,0.3,0c0.1,0,0.2,0,0.3,0.1c0.3,0.1,0.7,0.1,1.1,0.1c0.3,0,0.5-0.5,0.5-1.6c0-0.7,0-1.4,0-2.1
			c0-0.7,0-1.4,0-2.1v-4.5l-0.1-1.3c-0.1-0.6-0.1-1-0.2-1.2c-0.1-0.2-0.1-0.4-0.3-0.4c-0.1,0-0.2,0-0.4,0.1c-0.2,0-0.3,0-0.4,0.1
			c-0.2,0-0.3,0-0.4,0.1c-0.1,0-0.3,0-0.4,0c-1.3,0-2-0.6-2-1.7c0-1.1,0.8-1.7,2.3-1.7c0.1,0,0.2,0,0.3,0c0.1,0,0.1,0,0.3,0.1
			l1.3,0.2c0.1,0,0.3,0,0.4,0c0.2,0,0.3,0,0.5-0.1c0.2,0,0.4,0,0.5-0.1C294,371.2,294.2,371.2,294.4,371.2z"/>
		<path class="st3" d="M324.8,377.9c0-0.6,0.1-1,0.4-1.4c0.3-0.4,0.7-0.6,1.3-0.7c-0.4-1.2-1.5-1.8-3.2-1.8c-1.5,0-2.7,0.6-3.6,1.9
			c-0.9,1.3-1.4,2.9-1.4,5c0,2.2,0.4,3.9,1.3,5.1c0.9,1.2,2.1,1.8,3.6,1.8c0.9,0,1.7-0.3,2.4-0.8c0.7-0.5,1.2-1.3,1.4-2.3l0.5-1.6
			c0.4-0.7,1-1,1.8-1c0.6,0,1.1,0.2,1.5,0.5c0.4,0.4,0.6,0.8,0.6,1.4c0,0.7-0.2,1.5-0.7,2.4c-0.4,0.9-1,1.7-1.5,2.4
			c-0.8,0.8-1.7,1.4-2.7,1.8c-1,0.4-2.2,0.7-3.4,0.7c-2.7,0-4.9-1-6.6-2.9c-1.6-1.8-2.4-4.3-2.4-7.3c0-3.2,0.8-5.7,2.5-7.7
			c1.7-2,4-3,6.8-3c2.1,0,3.9,0.6,5.4,1.7c1.4,1.2,2.1,2.7,2.1,4.5c0,1.1-0.3,1.9-0.9,2.6c-0.6,0.7-1.4,1-2.4,1
			c-0.8,0-1.4-0.2-2-0.7C325,379.2,324.8,378.6,324.8,377.9z"/>
		<path class="st3" d="M352,379.3c0,0.6,0,1.1,0,1.4c0,0.3-0.1,0.6-0.2,0.8c-0.1,0.2-0.3,0.3-0.6,0.3c-0.2,0-0.6,0.1-1,0.1h-11.8
			c-0.1,0-0.2,0-0.2,0c0,1.7,0.5,3.2,1.5,4.3c1,1.1,2.2,1.7,3.6,1.7c1,0,1.8-0.3,2.6-0.8c0.8-0.5,1.3-1.2,1.5-2l0.4-1.1
			c0.2-0.4,0.4-0.7,0.7-0.9c0.3-0.2,0.7-0.4,1.1-0.4c1.4,0,2,0.7,2,2c0,1.8-0.9,3.3-2.7,4.7c-1.7,1.3-3.7,2-5.9,2
			c-2.8,0-5-0.9-6.7-2.8c-1.6-1.8-2.4-4.3-2.4-7.3c0-3.1,0.9-5.6,2.6-7.7c1.7-2,4-3,6.8-3c1.3,0,2.5,0.2,3.5,0.6
			c1,0.4,1.9,1,2.7,1.8C351.2,374.7,352,376.8,352,379.3z M347.7,378.3c0-1.2-0.4-2.2-1.3-3c-0.9-0.9-1.9-1.3-3-1.3
			c-1.1,0-2.3,0.5-3.4,1.4c-1,0.9-1.5,1.9-1.5,2.9H347.7z"/>
	</g>
</g>
</svg>
