<?xml version="1.0" encoding="utf-8"?>
<!-- Generator: Adobe Illustrator 22.1.0, SVG Export Plug-In . SVG Version: 6.00 Build 0)  -->
<svg version="1.1" id="Layer_1" xmlns="http://www.w3.org/2000/svg" xmlns:xlink="http://www.w3.org/1999/xlink" x="0px" y="0px"
	 viewBox="0 0 500 500" style="enable-background:new 0 0 500 500;" xml:space="preserve">
<style type="text/css">
	.st0{fill:#FFFFFF;}
	.st1{fill-rule:evenodd;clip-rule:evenodd;fill:#EDAA0E;}
	.st2{fill-rule:evenodd;clip-rule:evenodd;fill:#C70007;}
	.st3{fill:#2E58A6;}
</style>
<rect class="st0" width="500" height="500"/>
<g>
	<g>
		<path class="st1" d="M306,202.5c15.7-11.1,18.5-23.6,8.7-36.5c-4.7-6.1-11.6-7.5-14.2-12.2c-4.1-7.8,2.3-17.4,12.6-16.3
			C332.4,139.2,345.8,176.2,306,202.5L306,202.5z"/>
		<path class="st2" d="M324.6,182.5c7.8-12.9,6.5-27.8,2.3-36.2c47.5,69.5-2.8,156.3-90.1,149.9c-0.9-5.5-0.8-11.7,2.6-15.9
			c24.9,2.4,49.2-4.7,69.7-21.6c19-17.7,26.9-40.6,24-68.8c-2.8,5.2-6.8,10.1-11.6,14.5l6.8,10.6c0.6,1,0.4,2.4-0.6,3.1l0,0
			c-1,0.6-2.4,0.4-3.1-0.6l-6.4-9.9c-2.7,2.2-5.5,4.3-8.4,6.5l11.6,18c0.6,1,0.4,2.4-0.6,3.1l0,0c-1,0.6-2.4,0.4-3.1-0.6l-11.5-17.9
			c-3.2,2.2-6.5,4.3-10,6.5l14.3,22.2c0.8,1.1,0.4,2.7-0.8,3.3l0,0c-1,0.8-2.6,0.4-3.3-0.6l-14.3-22.3c-3.7,2.3-7.5,4.6-11.4,6.8
			l16.1,25c0.9,1.3,0.5,2.9-0.8,3.7l0,0c-1.3,0.9-2.9,0.5-3.8-0.8l-16.1-25.1c-4.5,2.7-8.7,5.4-12.9,8l13.7,21.3
			c0.8,1.1,0.4,2.5-0.6,3.3l0,0c-1.1,0.6-2.7,0.4-3.3-0.8l-13.7-21.2c-4,2.7-7.8,5.5-11.2,8.3l10.3,16.1c0.6,1,0.4,2.3-0.6,3.1l0,0
			c-1,0.6-2.4,0.3-3.1-0.8L244.7,257c-13.8,12.2-21.9,26.4-16.3,44.7c-26.7,0.1-19-31.3-6.4-46.2
			C251.3,220.5,306.5,216.2,324.6,182.5L324.6,182.5z"/>
		<path class="st2" d="M194.4,202.5c-15.6,11.1-18.4,23.5-8.5,36.4c4.7,6.1,11.6,7.7,14,12.2c4.2,7.8-2.2,17.3-12.5,16.3
			C168.1,265.7,154.6,228.7,194.4,202.5L194.4,202.5z"/>
		<path class="st1" d="M175.9,222.4c-7.8,13-6.5,27.8-2.3,36.4c-47.5-69.7,2.7-156.3,90.1-150c0.9,5.5,0.8,11.7-2.6,15.9
			c-24.9-2.4-49.4,4.8-69.8,21.7c-18.9,17.6-26.9,40.6-24,68.6c2.8-5.2,6.9-9.9,11.7-14.5l-6.9-10.6c-0.6-1-0.3-2.4,0.8-3.1l0,0
			c1-0.6,2.3-0.4,2.9,0.6l6.5,10.1c2.5-2.3,5.4-4.5,8.3-6.6l-11.6-18c-0.6-1-0.3-2.3,0.8-2.9l0,0c1-0.8,2.3-0.4,2.9,0.6l11.6,17.9
			c3.2-2.3,6.5-4.5,10-6.6l-14.3-22.2c-0.8-1.1-0.4-2.5,0.6-3.3l0,0c1.1-0.6,2.7-0.4,3.3,0.8l14.4,22.2c3.7-2.3,7.5-4.5,11.2-6.8
			l-16.1-25c-0.8-1.3-0.4-2.9,0.9-3.7l0,0c1.3-0.9,2.9-0.5,3.7,0.8l16.2,25.1c4.3-2.7,8.7-5.4,12.9-8l-13.8-21.3
			c-0.6-1-0.4-2.6,0.8-3.3l0,0c1.1-0.6,2.6-0.4,3.3,0.8l13.6,21.2c4-2.7,7.8-5.4,11.2-8.3l-10.3-16.1c-0.6-1-0.4-2.3,0.6-2.9l0,0
			c1-0.6,2.3-0.4,3.1,0.6l9.9,15.6c13.9-12.2,21.9-26.3,16.5-44.6c26.5-0.1,19,31.3,6.4,46.3C249.2,184.5,194,188.9,175.9,222.4
			L175.9,222.4z"/>
	</g>
	<g>
		<path class="st3" d="M163.7,379.7c-0.2,0-0.4,0.2-0.5,0.5l-0.3,1.1c-0.1,0.5-0.3,1-0.5,1.5c-0.2,0.5-0.5,1-0.9,1.4
			c0.7,0.3,1.2,0.8,1.5,1.3c0.3,0.5,0.5,1.2,0.5,2.1c0,0.1,0,0.2,0,0.3c0,0.1,0,0.2,0,0.3v0.6c0,0.3,0,0.5,0.1,0.7
			c0.1,0.2,0.2,0.3,0.4,0.3c0.3,0,0.5-0.4,0.5-1.3v-1.3c0-0.8,0.4-1.2,1.3-1.2c0.9,0,1.3,0.4,1.3,1.3v2.1c0,2-1.1,3-3.2,3
			c-1,0-1.8-0.2-2.3-0.7c-0.5-0.5-0.8-1.2-0.8-2.3v-0.7v-0.9c0-0.6-0.2-1-0.5-1.3c-0.3-0.3-0.8-0.5-1.4-0.6
			c-0.4,0.1-0.8,0.2-1.3,0.3c-0.5,0.1-1,0.1-1.6,0.2v1.7c0,0.7,0,1.1,0.1,1.3c0,0.2,0.1,0.3,0.2,0.3c0,0,0.1,0,0.2,0
			c0.1,0,0.2,0,0.3-0.1c0.1,0,0.3-0.1,0.4-0.1c0.1,0,0.2,0,0.4,0c0.9,0,1.3,0.4,1.3,1.3c0,0.9-0.5,1.3-1.5,1.3c-0.1,0-0.2,0-0.2,0
			c0,0-0.1,0-0.2,0c-0.2,0-0.6-0.1-1-0.1c-0.4,0-0.8-0.1-1.3-0.1c-0.2,0-0.5,0-0.9,0.1c-0.4,0-0.8,0.1-1.1,0.1
			c-0.2,0-0.4,0.1-0.6,0.1c-0.2,0-0.3,0-0.3,0c-1.1,0-1.6-0.4-1.6-1.3c0-0.8,0.4-1.2,1.3-1.2c0.1,0,0.2,0,0.2,0c0.1,0,0.1,0,0.2,0
			c0.2,0.1,0.5,0.1,0.8,0.1c0.1,0,0.2-0.1,0.3-0.3c0.1-0.2,0.1-0.7,0.1-1.3v-6.4c0-0.6,0-1.1-0.1-1.3c-0.1-0.2-0.2-0.3-0.3-0.3
			c-0.1,0-0.2,0-0.4,0c-0.1,0-0.3,0-0.4,0.1c-0.1,0-0.2,0-0.2,0c-0.1,0-0.1,0-0.2,0c-0.9,0-1.3-0.4-1.3-1.3c0-0.9,0.5-1.3,1.6-1.3
			c0.1,0,0.2,0,0.3,0c0.2,0,0.3,0,0.6,0.1c0.3,0,0.7,0.1,1.1,0.1c0.4,0,0.7,0,0.9,0c0.5,0,0.9,0,1.3-0.1c0.4,0,0.7-0.1,1-0.1
			c0.1,0,0.2,0,0.2,0c0,0,0.1,0,0.2,0c1,0,1.5,0.4,1.5,1.3c0,0.9-0.4,1.3-1.3,1.3c-0.2,0-0.3,0-0.4,0c-0.1,0-0.2,0-0.4-0.1
			c-0.1,0-0.2-0.1-0.3-0.1c-0.1,0-0.2,0-0.2,0c-0.1,0-0.2,0.1-0.2,0.3c0,0.2-0.1,0.7-0.1,1.3v2.4c0.6-0.1,1.2-0.1,1.6-0.2
			c0.4-0.1,0.8-0.2,1.1-0.3c0.3-0.1,0.6-0.3,0.7-0.4c0.2-0.2,0.4-0.4,0.5-0.6c0.2-0.3,0.3-0.6,0.4-0.9c0.1-0.3,0.2-0.7,0.3-1
			c0.1-0.4,0.2-0.8,0.3-1.2c0.1-0.4,0.3-0.7,0.6-1c0.2-0.3,0.6-0.5,1-0.7c0.4-0.2,1-0.3,1.7-0.3c0.4,0,0.8,0.1,1.2,0.2
			c0.4,0.1,0.7,0.3,1.1,0.6c0.3,0.2,0.6,0.6,0.8,0.9c0.2,0.4,0.3,0.8,0.3,1.3c0,0.6-0.2,1-0.5,1.4c-0.4,0.4-0.9,0.6-1.5,0.6
			c-0.6,0-1-0.2-1.3-0.5c-0.3-0.3-0.5-0.7-0.5-1.2c0-0.2,0-0.4,0-0.5C163.6,380,163.6,379.9,163.7,379.7L163.7,379.7z"/>
		<path class="st3" d="M176.1,392.3c-2,0-3.7-0.7-4.9-2.1c-1.2-1.4-1.8-3.2-1.8-5.5c0-2.3,0.6-4.1,1.8-5.5c1.2-1.4,2.9-2.1,5-2.1
			c2.1,0,3.8,0.7,5,2.1c1.2,1.4,1.8,3.2,1.8,5.5c0,2.3-0.6,4.2-1.9,5.6C179.9,391.6,178.3,392.3,176.1,392.3z M176.3,379.7
			c-1.1,0-2,0.4-2.7,1.2c-0.6,0.8-1,2-1,3.5v0.3c0,1.6,0.3,2.8,0.9,3.7c0.6,0.9,1.5,1.3,2.7,1.3c1.2,0,2.1-0.4,2.8-1.3
			c0.7-0.9,1-2.1,1-3.8C179.9,381.3,178.7,379.7,176.3,379.7z"/>
		<path class="st3" d="M190.3,383.4h6v-1.8c0-0.7,0-1.1-0.1-1.3c0-0.2-0.1-0.3-0.2-0.3c0,0-0.1,0-0.2,0c-0.1,0-0.2,0-0.3,0.1
			c-0.1,0-0.2,0.1-0.3,0.1c-0.1,0-0.2,0-0.4,0c-0.9,0-1.3-0.4-1.3-1.3c0-0.8,0.5-1.3,1.5-1.3c0.1,0,0.2,0,0.2,0c0,0,0.1,0,0.2,0
			c0.2,0,0.6,0.1,1,0.1c0.4,0,0.8,0.1,1.3,0.1c0.2,0,0.5,0,0.9,0c0.4,0,0.8-0.1,1.1-0.1c0.2,0,0.4-0.1,0.5-0.1c0.2,0,0.3,0,0.3,0
			c1.1,0,1.6,0.4,1.6,1.3c0,0.8-0.4,1.3-1.3,1.3c-0.1,0-0.2,0-0.3,0c-0.1,0-0.1,0-0.2,0c-0.1,0-0.2-0.1-0.4-0.1c-0.1,0-0.2,0-0.3,0
			c-0.2,0-0.3,0.1-0.3,0.3c-0.1,0.2-0.1,0.7-0.1,1.3v6.4c0,0.7,0,1.1,0.1,1.3c0,0.2,0.1,0.3,0.2,0.3c0,0,0.1,0,0.2,0
			c0.1,0,0.2,0,0.3-0.1c0.1,0,0.3-0.1,0.4-0.1c0.1,0,0.2,0,0.4,0c0.9,0,1.3,0.4,1.3,1.3c0,0.9-0.5,1.3-1.5,1.3c-0.1,0-0.2,0-0.2,0
			c0,0-0.1,0-0.2,0c-0.2,0-0.6-0.1-1-0.1c-0.4,0-0.8-0.1-1.3-0.1c-0.2,0-0.5,0-0.9,0.1c-0.4,0-0.8,0.1-1.1,0.1
			c-0.2,0-0.4,0.1-0.6,0.1c-0.2,0-0.3,0-0.3,0c-1.1,0-1.6-0.4-1.6-1.3c0-0.8,0.4-1.2,1.3-1.2c0.1,0,0.2,0,0.2,0c0.1,0,0.1,0,0.2,0
			c0.1,0,0.2,0.1,0.4,0.1c0.1,0,0.3,0,0.4,0c0.2,0,0.3-0.1,0.3-0.3c0.1-0.2,0.1-0.7,0.1-1.3v-2h-6v2c0,0.6,0,1.1,0.1,1.3
			c0.1,0.2,0.2,0.3,0.3,0.3c0.1,0,0.2,0,0.4,0c0.1,0,0.3,0,0.4-0.1c0.1,0,0.2,0,0.2,0c0.1,0,0.1,0,0.3,0c0.9,0,1.3,0.4,1.3,1.2
			c0,0.9-0.5,1.3-1.6,1.3c-0.1,0-0.2,0-0.3,0c-0.2,0-0.4,0-0.5-0.1c-0.3,0-0.7-0.1-1.1-0.1c-0.4,0-0.7-0.1-0.9-0.1
			c-0.5,0-0.9,0-1.3,0.1c-0.4,0-0.7,0.1-1,0.1c-0.1,0-0.2,0-0.2,0c0,0-0.1,0-0.2,0c-1,0-1.5-0.4-1.5-1.3c0-0.9,0.4-1.3,1.3-1.3
			c0.2,0,0.3,0,0.4,0c0.1,0,0.2,0,0.4,0.1c0.1,0,0.2,0,0.3,0.1c0.1,0,0.2,0,0.2,0c0.1,0,0.2-0.1,0.2-0.3c0-0.2,0.1-0.7,0.1-1.3v-6.4
			c0-0.6,0-1.1-0.1-1.3c-0.1-0.2-0.2-0.3-0.3-0.3c-0.1,0-0.2,0-0.4,0c-0.1,0-0.3,0-0.4,0.1c-0.1,0-0.1,0-0.2,0c-0.1,0-0.1,0-0.2,0
			c-0.9,0-1.3-0.4-1.3-1.3c0-0.9,0.5-1.3,1.6-1.3c0.1,0,0.2,0,0.3,0c0.2,0,0.3,0,0.5,0.1c0.3,0,0.7,0.1,1.1,0.1c0.4,0,0.7,0,0.9,0
			c0.5,0,0.9,0,1.3-0.1c0.4,0,0.7-0.1,1-0.1c0.1,0,0.1,0,0.2,0c0,0,0.1,0,0.2,0c1,0,1.5,0.4,1.5,1.3c0,0.9-0.4,1.3-1.3,1.3
			c-0.2,0-0.3,0-0.4,0c-0.1,0-0.2,0-0.3-0.1c-0.1,0-0.2-0.1-0.3-0.1c-0.1,0-0.1,0-0.2,0c-0.1,0-0.2,0.1-0.2,0.3
			c0,0.2-0.1,0.7-0.1,1.3V383.4z"/>
		<path class="st3" d="M210.4,377.1c0.7,0,1.4,0.1,2,0.3c0.6,0.2,1.1,0.5,1.6,0.9v-1.5c0-0.6,0-1-0.1-1.3c0-0.2-0.1-0.4-0.2-0.5
			c-0.1,0-0.2,0-0.3,0c-0.2,0-0.3,0-0.3,0h0.1c-0.3,0.1-0.5,0.1-0.7,0.1c-1,0-1.5-0.4-1.5-1.3c0-0.9,0.6-1.3,1.8-1.3
			c0.2,0,0.3,0,0.5,0c0.1,0,0.3,0,0.4,0l0.8,0.1c0.1,0,0.1,0,0.3,0c0.1,0,0.2,0,0.4,0c0.1,0,0.3,0,0.4,0c0.1,0,0.2,0,0.3,0
			c0.8,0,1.2,0.5,1.2,1.5c0,0.1,0,0.2,0,0.3c0,0.1,0,0.2,0,0.4c0,0.3-0.1,0.8-0.1,1.3c0,0.5,0,1.3,0,2.2c1-0.9,2.2-1.3,3.7-1.3
			c1,0,1.9,0.2,2.6,0.5c0.8,0.3,1.4,0.8,2,1.5c0.6,0.6,1,1.4,1.3,2.3c0.3,0.9,0.5,1.9,0.5,3c0,1.2-0.2,2.3-0.5,3.2
			c-0.3,1-0.8,1.8-1.3,2.5c-0.6,0.7-1.3,1.2-2.1,1.6c-0.8,0.4-1.7,0.6-2.8,0.6c-1.3,0-2.5-0.3-3.4-1v1.3c0,0.7,0,1.2,0.1,1.4
			c0.1,0.2,0.2,0.3,0.3,0.3c0.1,0,0.2,0,0.4-0.1c0.1,0,0.3,0,0.5-0.1c0.2,0,0.3,0,0.2,0c0.9,0,1.3,0.4,1.3,1.3
			c0,0.9-0.5,1.3-1.6,1.3c-0.2,0-0.3,0-0.4,0c-0.1,0-0.2,0-0.4,0c-0.2,0-0.5-0.1-0.9-0.1c-0.4,0-0.8,0-1.4,0c-0.5,0-0.8,0-1.2,0
			c-0.3,0-0.6,0.1-0.8,0.1c-0.1,0-0.2,0-0.3,0c-0.1,0-0.2,0-0.3,0c-0.5,0-0.8-0.1-1.1-0.4c-0.3-0.3-0.4-0.6-0.4-1
			c0-0.8,0.5-1.2,1.4-1.2c0.2,0,0.4,0,0.7,0.1c0.2,0.1,0.4,0.1,0.5,0.1c0.1,0,0.1,0,0.1-0.1c0,0,0.1-0.2,0.1-0.4
			c0-0.2,0-0.5,0.1-0.9c0-0.4,0-1,0.1-1.7c-1,0.7-2.1,1-3.5,1c-1,0-1.9-0.2-2.7-0.6c-0.8-0.4-1.5-0.9-2.1-1.6
			c-0.6-0.7-1-1.5-1.3-2.4c-0.3-0.9-0.5-2-0.5-3.1c0-1.1,0.2-2.2,0.5-3.1c0.3-0.9,0.8-1.7,1.3-2.4c0.6-0.7,1.3-1.2,2.1-1.5
			C208.5,377.3,209.4,377.1,210.4,377.1z M210.7,389.8c0.7,0,1.2-0.1,1.7-0.4c0.4-0.3,0.7-0.6,1-1.1c0.2-0.5,0.4-1,0.5-1.6
			c0.1-0.6,0.1-1.2,0.1-1.9c0-0.6,0-1.2-0.1-1.8c-0.1-0.6-0.2-1.1-0.4-1.6c-0.2-0.5-0.6-0.9-1-1.2c-0.4-0.3-1-0.5-1.8-0.5
			c-1.1,0-2,0.4-2.6,1.3c-0.6,0.9-0.9,2.1-0.9,3.7c0,1.6,0.3,2.9,1,3.8C208.6,389.3,209.5,389.8,210.7,389.8z M220.4,379.7
			c-0.7,0-1.3,0.2-1.7,0.5c-0.4,0.3-0.8,0.7-1,1.2c-0.3,0.5-0.4,1.1-0.5,1.7c-0.1,0.6-0.1,1.3-0.1,1.9c0,0.6,0,1.1,0.1,1.7
			c0.1,0.6,0.2,1.1,0.4,1.5c0.2,0.4,0.5,0.8,1,1.1c0.4,0.3,1,0.4,1.7,0.4c1.1,0,2-0.4,2.7-1.3c0.6-0.9,1-2.1,1-3.8
			C223.8,381.3,222.7,379.7,220.4,379.7z"/>
		<path class="st3" d="M242.6,383.5c0,0.4,0,0.8,0,1c0,0.2-0.1,0.4-0.2,0.6c-0.1,0.1-0.2,0.2-0.4,0.2c-0.2,0-0.4,0-0.8,0h-8.6
			c-0.1,0-0.1,0-0.1,0c0,1.3,0.4,2.3,1.1,3.1c0.7,0.8,1.6,1.2,2.7,1.2c0.7,0,1.3-0.2,1.9-0.6c0.6-0.4,0.9-0.9,1.1-1.5l0.3-0.8
			c0.1-0.3,0.3-0.5,0.5-0.7c0.2-0.2,0.5-0.3,0.8-0.3c1,0,1.5,0.5,1.5,1.4c0,1.3-0.7,2.4-2,3.4c-1.3,1-2.7,1.4-4.3,1.4
			c-2.1,0-3.7-0.7-4.9-2c-1.2-1.4-1.8-3.1-1.8-5.4c0-2.3,0.6-4.1,1.9-5.6c1.3-1.5,2.9-2.2,5-2.2c1,0,1.8,0.2,2.5,0.5
			c0.7,0.3,1.4,0.8,2,1.3C242,380.2,242.6,381.7,242.6,383.5z M239.5,382.8c0-0.9-0.3-1.6-0.9-2.2c-0.7-0.6-1.4-0.9-2.2-0.9
			c-0.8,0-1.7,0.3-2.5,1c-0.7,0.7-1.1,1.4-1.1,2.1H239.5z"/>
		<path class="st3" d="M248.4,377.6c0.6,0,1,0.3,1.1,0.9c1-0.9,2.2-1.3,3.7-1.3c1,0,1.9,0.2,2.6,0.5c0.8,0.3,1.5,0.8,2,1.5
			c0.6,0.6,1,1.4,1.3,2.3c0.3,0.9,0.4,1.9,0.4,3c0,1.1-0.2,2.2-0.5,3.2c-0.3,1-0.8,1.8-1.3,2.5c-0.6,0.7-1.3,1.3-2.1,1.6
			c-0.8,0.4-1.7,0.5-2.7,0.5c-1.3,0-2.4-0.3-3.3-1v1.3c0,0.3,0,0.6,0,0.8c0,0.2,0,0.4,0,0.5v0c0.1,0.4,0.2,0.5,0.3,0.5
			c0.1,0,0.2,0,0.4-0.1c0.1,0,0.3,0,0.5-0.1c0.2,0,0.3,0,0.3,0c0.9,0,1.3,0.4,1.3,1.3c0,0.9-0.5,1.3-1.6,1.3c-0.2,0-0.3,0-0.6,0
			c-0.2,0-0.5,0-0.7-0.1h0c-0.4-0.1-1-0.1-1.7-0.1c-0.2,0-0.4,0-0.5,0c-0.2,0-0.3,0-0.5,0c0,0-0.1,0-0.1,0s-0.1,0-0.1,0
			c-0.3,0-0.5,0.1-0.8,0.1c-0.2,0-0.4,0-0.5,0c-0.4,0-0.8-0.1-1.1-0.4c-0.3-0.3-0.5-0.6-0.5-1c0-0.8,0.5-1.2,1.4-1.2
			c0.1,0,0.2,0,0.3,0c0.1,0,0.2,0,0.3,0c0.2,0.1,0.4,0.1,0.6,0.1c0.1,0,0.1-0.1,0.2-0.2c0-0.2,0.1-0.5,0.1-1c0-0.5,0-1.1,0.1-1.8
			c0-1.7,0-3.5,0-5.2c0-1.7,0-3.5,0-5.2c0-0.6-0.1-0.9-0.2-0.9c-0.1,0-0.2,0-0.4,0.1c-0.1,0-0.3,0.1-0.4,0.1c-0.1,0-0.2,0-0.4,0
			c-1,0-1.5-0.4-1.5-1.3c0-0.8,0.6-1.2,1.7-1.2c0.1,0,0.2,0,0.3,0c0.1,0,0.2,0,0.3,0c0.1,0,0.1,0,0.2,0c0.1,0,0.1,0,0.2,0
			c0.1,0,0.2,0,0.3,0s0.2,0,0.2,0c0.1,0,0.2,0,0.3,0c0.1,0,0.3,0,0.4,0c0.2,0,0.3,0,0.4,0S248.3,377.6,248.4,377.6z M249.9,382.1
			c-0.1,0.4-0.2,0.8-0.2,1.2c0,0.4-0.1,0.8-0.1,1.3c0,0.1,0,0.1,0,0.2c0,0.1,0,0.2,0,0.2v0.3c0,0.6,0,1.1,0.1,1.5
			c0,0.4,0.1,0.8,0.2,1c0.1,0.2,0.2,0.5,0.4,0.7c0.2,0.2,0.4,0.4,0.6,0.6c0.3,0.2,0.6,0.3,0.9,0.4c0.3,0.1,0.7,0.2,1,0.2
			c1.2,0,2.1-0.4,2.7-1.3c0.6-0.9,0.9-2.1,0.9-3.8c0-3.4-1.1-5-3.4-5c-0.7,0-1.4,0.2-2,0.7C250.5,380.8,250.1,381.4,249.9,382.1z"/>
		<path class="st3" d="M274.9,383.5c0,0.4,0,0.8,0,1c0,0.2-0.1,0.4-0.2,0.6c-0.1,0.1-0.2,0.2-0.4,0.2c-0.2,0-0.4,0-0.8,0h-8.6
			c-0.1,0-0.1,0-0.1,0c0,1.3,0.4,2.3,1.1,3.1c0.7,0.8,1.6,1.2,2.7,1.2c0.7,0,1.3-0.2,1.9-0.6c0.6-0.4,0.9-0.9,1.1-1.5l0.3-0.8
			c0.1-0.3,0.3-0.5,0.5-0.7c0.2-0.2,0.5-0.3,0.8-0.3c1,0,1.5,0.5,1.5,1.4c0,1.3-0.7,2.4-2,3.4c-1.3,1-2.7,1.4-4.3,1.4
			c-2.1,0-3.7-0.7-4.9-2c-1.2-1.4-1.8-3.1-1.8-5.4c0-2.3,0.6-4.1,1.9-5.6c1.3-1.5,2.9-2.2,5-2.2c1,0,1.8,0.2,2.5,0.5
			c0.7,0.3,1.4,0.8,2,1.3C274.3,380.2,274.9,381.7,274.9,383.5z M271.7,382.8c0-0.9-0.3-1.6-0.9-2.2c-0.7-0.6-1.4-0.9-2.2-0.9
			c-0.8,0-1.7,0.3-2.5,1c-0.7,0.7-1.1,1.4-1.1,2.1H271.7z"/>
		<path class="st3" d="M282,383.4h6v-1.8c0-0.7,0-1.1-0.1-1.3c0-0.2-0.1-0.3-0.2-0.3c0,0-0.1,0-0.2,0c-0.1,0-0.2,0-0.3,0.1
			c-0.1,0-0.2,0.1-0.3,0.1c-0.1,0-0.2,0-0.4,0c-0.9,0-1.3-0.4-1.3-1.3c0-0.8,0.5-1.3,1.5-1.3c0.1,0,0.2,0,0.2,0c0,0,0.1,0,0.2,0
			c0.2,0,0.6,0.1,1,0.1c0.4,0,0.8,0.1,1.3,0.1c0.2,0,0.5,0,0.9,0c0.4,0,0.8-0.1,1.1-0.1c0.2,0,0.4-0.1,0.5-0.1c0.2,0,0.3,0,0.3,0
			c1.1,0,1.6,0.4,1.6,1.3c0,0.8-0.4,1.3-1.3,1.3c-0.1,0-0.2,0-0.3,0c-0.1,0-0.1,0-0.2,0c-0.1,0-0.2-0.1-0.4-0.1c-0.1,0-0.2,0-0.3,0
			c-0.2,0-0.3,0.1-0.3,0.3c-0.1,0.2-0.1,0.7-0.1,1.3v6.4c0,0.7,0,1.1,0.1,1.3c0,0.2,0.1,0.3,0.2,0.3c0,0,0.1,0,0.2,0
			c0.1,0,0.2,0,0.3-0.1c0.1,0,0.3-0.1,0.4-0.1c0.1,0,0.2,0,0.4,0c0.9,0,1.3,0.4,1.3,1.3c0,0.9-0.5,1.3-1.5,1.3c-0.1,0-0.2,0-0.2,0
			c0,0-0.1,0-0.2,0c-0.2,0-0.6-0.1-1-0.1c-0.4,0-0.8-0.1-1.3-0.1c-0.2,0-0.5,0-0.9,0.1c-0.4,0-0.8,0.1-1.1,0.1
			c-0.2,0-0.4,0.1-0.6,0.1c-0.2,0-0.3,0-0.3,0c-1.1,0-1.6-0.4-1.6-1.3c0-0.8,0.4-1.2,1.3-1.2c0.1,0,0.2,0,0.2,0c0.1,0,0.1,0,0.2,0
			c0.1,0,0.2,0.1,0.4,0.1c0.1,0,0.3,0,0.4,0c0.2,0,0.3-0.1,0.3-0.3c0.1-0.2,0.1-0.7,0.1-1.3v-2h-6v2c0,0.6,0,1.1,0.1,1.3
			c0.1,0.2,0.2,0.3,0.3,0.3c0.1,0,0.2,0,0.4,0c0.1,0,0.3,0,0.4-0.1c0.1,0,0.2,0,0.2,0c0.1,0,0.1,0,0.3,0c0.9,0,1.3,0.4,1.3,1.2
			c0,0.9-0.5,1.3-1.6,1.3c-0.1,0-0.2,0-0.3,0c-0.2,0-0.4,0-0.5-0.1c-0.3,0-0.7-0.1-1.1-0.1c-0.4,0-0.7-0.1-0.9-0.1
			c-0.5,0-0.9,0-1.3,0.1c-0.4,0-0.7,0.1-1,0.1c-0.1,0-0.2,0-0.2,0c0,0-0.1,0-0.2,0c-1,0-1.5-0.4-1.5-1.3c0-0.9,0.4-1.3,1.3-1.3
			c0.2,0,0.3,0,0.4,0c0.1,0,0.2,0,0.4,0.1c0.1,0,0.2,0,0.3,0.1c0.1,0,0.2,0,0.2,0c0.1,0,0.2-0.1,0.2-0.3c0-0.2,0.1-0.7,0.1-1.3v-6.4
			c0-0.6,0-1.1-0.1-1.3c-0.1-0.2-0.2-0.3-0.3-0.3c-0.1,0-0.2,0-0.4,0c-0.1,0-0.3,0-0.4,0.1c-0.1,0-0.1,0-0.2,0c-0.1,0-0.1,0-0.2,0
			c-0.9,0-1.3-0.4-1.3-1.3c0-0.9,0.5-1.3,1.6-1.3c0.1,0,0.2,0,0.3,0c0.2,0,0.3,0,0.5,0.1c0.3,0,0.7,0.1,1.1,0.1c0.4,0,0.7,0,0.9,0
			c0.5,0,0.9,0,1.3-0.1c0.4,0,0.7-0.1,1-0.1c0.1,0,0.1,0,0.2,0c0,0,0.1,0,0.2,0c1,0,1.5,0.4,1.5,1.3c0,0.9-0.4,1.3-1.3,1.3
			c-0.2,0-0.3,0-0.4,0c-0.1,0-0.2,0-0.3-0.1c-0.1,0-0.2-0.1-0.3-0.1c-0.1,0-0.1,0-0.2,0c-0.1,0-0.2,0.1-0.2,0.3
			c0,0.2-0.1,0.7-0.1,1.3V383.4z"/>
		<path class="st3" d="M309.7,388c0,0.6,0,1,0.1,1.2c0.1,0.3,0.2,0.4,0.4,0.4c0.1,0,0.2,0,0.3,0c0.1,0,0.2,0,0.3,0
			c0.1,0,0.3-0.1,0.4-0.1c0.6,0,1,0.1,1.2,0.4c0.3,0.3,0.4,0.6,0.4,1c0,0.1,0,0.3,0,0.5c0,0.2,0,0.4-0.1,0.7c0,0.2-0.1,0.4-0.1,0.6
			c0,0.2,0,0.3,0,0.4c0,0.1,0,0.2,0,0.3c0,0.1,0,0.2,0,0.3c0,0.2,0,0.3,0,0.4c0,0.1,0,0.3,0,0.5c0,0.4-0.1,0.7-0.4,0.9
			c-0.3,0.2-0.6,0.3-1,0.3c-0.9,0-1.4-0.4-1.4-1.3c0,0,0-0.2,0-0.3c0-0.2,0-0.4,0.1-0.5c0-0.1,0-0.3,0-0.4c0-0.1,0-0.2,0-0.2
			c0-0.3,0-0.5,0-0.7c0-0.2-0.1-0.3-0.2-0.4c-0.1-0.1-0.2-0.2-0.4-0.2c-0.2,0-0.4,0-0.8,0h-9.6c-0.2,0-0.5,0-0.9,0.1
			c-0.4,0-0.8,0.1-1.1,0.1c-0.2,0-0.4,0.1-0.5,0.1c-0.2,0-0.3,0-0.3,0c-1.1,0-1.6-0.4-1.6-1.3c0-0.8,0.4-1.2,1.3-1.2
			c0.1,0,0.2,0,0.2,0c0.1,0,0.1,0,0.2,0c0.2,0.1,0.5,0.1,0.7,0.1c0.2,0,0.3-0.1,0.3-0.3c0.1-0.2,0.1-0.7,0.1-1.3v-6.4
			c0-0.7,0-1.1-0.1-1.3c0-0.2-0.1-0.3-0.2-0.3c0,0-0.1,0-0.2,0c-0.1,0-0.2,0-0.3,0.1c-0.1,0-0.3,0.1-0.4,0.1c-0.1,0-0.2,0-0.4,0
			c-0.9,0-1.3-0.4-1.3-1.3c0-0.8,0.5-1.3,1.5-1.3c0.1,0,0.2,0,0.2,0c0,0,0.1,0,0.2,0c0.2,0,0.6,0.1,1,0.1c0.4,0,0.8,0.1,1.3,0.1
			c0.2,0,0.5,0,0.9,0c0.4,0,0.8-0.1,1.1-0.1c0.2,0,0.4-0.1,0.6-0.1c0.2,0,0.3,0,0.3,0c1.1,0,1.6,0.4,1.6,1.3c0,0.8-0.4,1.3-1.3,1.3
			c-0.1,0-0.2,0-0.3,0c-0.1,0-0.1,0-0.2,0c-0.1,0-0.2-0.1-0.4-0.1c-0.1,0-0.2,0-0.3,0c-0.2,0-0.3,0.1-0.3,0.3
			c-0.1,0.2-0.1,0.7-0.1,1.3v6.4c0,0.4,0,0.7,0,0.9c0,0.2,0.1,0.3,0.2,0.3h5.5c0.1,0,0.2-0.1,0.2-0.3c0-0.2,0-0.5,0-0.9v-6.4
			c0-0.6,0-1.1-0.1-1.3c-0.1-0.2-0.2-0.3-0.3-0.3c-0.1,0-0.2,0-0.4,0c-0.1,0-0.3,0-0.4,0.1c-0.1,0-0.2,0-0.2,0c-0.1,0-0.1,0-0.2,0
			c-0.9,0-1.3-0.4-1.3-1.3c0-0.9,0.5-1.3,1.6-1.3c0.1,0,0.2,0,0.3,0c0.2,0,0.3,0,0.6,0.1c0.3,0,0.7,0.1,1.1,0.1c0.4,0,0.7,0,0.9,0
			c0.5,0,0.9,0,1.3-0.1c0.4,0,0.7-0.1,1-0.1c0.1,0,0.2,0,0.2,0c0,0,0.1,0,0.2,0c1,0,1.5,0.4,1.5,1.3c0,0.9-0.4,1.3-1.3,1.3
			c-0.2,0-0.3,0-0.4,0c-0.1,0-0.2,0-0.4-0.1c-0.1,0-0.2-0.1-0.3-0.1c-0.1,0-0.2,0-0.2,0c-0.1,0-0.2,0.1-0.2,0.3
			c0,0.2-0.1,0.7-0.1,1.3V388z"/>
		<path class="st3" d="M325.1,379.9c-0.1,0-0.2,0-0.4,0c-0.1,0-0.3,0-0.4,0.1c-0.1,0-0.2,0-0.2,0c-0.1,0-0.1,0-0.2,0
			c-0.9,0-1.3-0.4-1.3-1.3c0-0.9,0.5-1.3,1.6-1.3c0.1,0,0.2,0,0.3,0c0.2,0,0.3,0,0.5,0.1c0.3,0,0.7,0.1,1.1,0.1c0.4,0,0.7,0,0.9,0
			c0.5,0,0.9,0,1.3-0.1c0.4,0,0.7-0.1,1-0.1c0.1,0,0.2,0,0.2,0c0,0,0.1,0,0.2,0c1,0,1.5,0.4,1.5,1.3c0,0.9-0.4,1.3-1.3,1.3
			c-0.2,0-0.3,0-0.4,0c-0.1,0-0.2,0-0.4-0.1c-0.1,0-0.2-0.1-0.3-0.1c-0.1,0-0.1,0-0.2,0c-0.1,0-0.2,0.1-0.2,0.3s-0.1,0.7-0.1,1.3
			v6.4c0,0.7,0,1.1,0.1,1.3c0,0.2,0.1,0.3,0.2,0.3c0,0,0.1,0,0.2,0c0.1,0,0.2,0,0.3-0.1c0.1,0,0.3-0.1,0.4-0.1c0.1,0,0.2,0,0.4,0
			c0.9,0,1.3,0.4,1.3,1.3c0,0.9-0.5,1.3-1.5,1.3c-0.1,0-0.2,0-0.2,0c0,0-0.1,0-0.2,0c-0.2,0-0.6-0.1-1-0.1c-0.4,0-0.8-0.1-1.3-0.1
			c-0.2,0-0.5,0-0.9,0.1c-0.4,0-0.8,0.1-1.1,0.1c-0.2,0-0.4,0.1-0.5,0.1c-0.2,0-0.3,0-0.3,0c-1.1,0-1.6-0.4-1.6-1.3
			c0-0.8,0.4-1.2,1.3-1.2c0.1,0,0.2,0,0.2,0c0.1,0,0.1,0,0.2,0c0.1,0,0.2,0.1,0.4,0.1c0.1,0,0.3,0,0.4,0c0.2,0,0.3-0.1,0.3-0.3
			c0.1-0.2,0.1-0.7,0.1-1.3v-4l-5.3,4.7c-0.2,0.2-0.4,0.3-0.4,0.4c-0.1,0.1-0.1,0.2-0.1,0.4c0,0.1,0,0.1,0.1,0.1c0,0,0.1,0,0.2,0
			c0.1,0,0.2,0,0.3-0.1c0.1,0,0.2-0.1,0.3-0.1c0.1,0,0.2,0,0.4,0c0.9,0,1.3,0.4,1.3,1.3c0,0.9-0.5,1.3-1.5,1.3c-0.1,0-0.2,0-0.2,0
			c0,0-0.1,0-0.2,0c-0.2,0-0.6-0.1-1-0.1c-0.4,0-0.8-0.1-1.3-0.1c-0.2,0-0.5,0-0.9,0.1c-0.4,0-0.8,0.1-1.1,0.1
			c-0.2,0-0.4,0.1-0.5,0.1c-0.2,0-0.3,0-0.3,0c-1.1,0-1.6-0.4-1.6-1.3c0-0.8,0.4-1.2,1.3-1.2c0.1,0,0.2,0,0.2,0c0.1,0,0.1,0,0.2,0
			c0.2,0.1,0.5,0.1,0.8,0.1c0.1,0,0.2-0.1,0.3-0.3c0.1-0.2,0.1-0.7,0.1-1.3v-6.4c0-0.6,0-1.1-0.1-1.3c-0.1-0.2-0.2-0.3-0.3-0.3
			c-0.1,0-0.2,0-0.4,0c-0.1,0-0.3,0-0.4,0.1c-0.1,0-0.1,0-0.2,0c-0.1,0-0.1,0-0.2,0c-0.9,0-1.3-0.4-1.3-1.3c0-0.9,0.5-1.3,1.6-1.3
			c0,0,0.1,0,0.3,0c0.2,0,0.4,0,0.5,0.1c0.3,0,0.7,0.1,1.1,0.1c0.4,0,0.7,0,0.9,0c0.5,0,0.9,0,1.3-0.1c0.4,0,0.7-0.1,1-0.1
			c0.1,0,0.2,0,0.2,0c0,0,0.1,0,0.2,0c1,0,1.5,0.4,1.5,1.3c0,0.9-0.4,1.3-1.3,1.3c-0.2,0-0.3,0-0.4,0c-0.1,0-0.2,0-0.3-0.1
			c-0.1,0-0.2-0.1-0.3-0.1c-0.1,0-0.2,0-0.2,0c-0.1,0-0.2,0.1-0.2,0.3c0,0.2-0.1,0.7-0.1,1.3v4.3l5.6-5c0.2-0.1,0.3-0.2,0.3-0.3
			c0-0.1,0.1-0.3,0.1-0.4c0-0.1,0-0.2-0.1-0.2C325.2,380,325.2,379.9,325.1,379.9z"/>
		<path class="st3" d="M336.4,387.7c0-0.6,0.1-1.1,0.3-1.6c0.2-0.4,0.5-0.8,0.8-1.2c-0.7-0.4-1.2-0.8-1.5-1.4
			c-0.4-0.6-0.5-1.3-0.5-2.1c0-1.1,0.5-2.1,1.4-2.8c0.9-0.7,2.3-1.1,4-1.1c0.6,0,1.2,0,1.8,0c0.6,0,1.1,0,1.5,0.1
			c0.3,0,0.6,0,0.9,0.1c0.3,0,0.5,0,0.7,0c0.4,0,0.8,0,1.2-0.1c0.2,0,0.5-0.1,0.7-0.1c0.2,0,0.5,0,0.8,0c0.5,0,0.9,0.1,1.2,0.3
			c0.2,0.2,0.4,0.5,0.4,1c0,0.3-0.1,0.6-0.3,0.8c-0.2,0.3-0.5,0.4-0.9,0.4c-0.2,0-0.4,0-0.5,0c-0.1,0-0.2,0-0.3-0.1
			c-0.1,0-0.2,0-0.3,0c-0.1,0-0.2,0-0.3,0c-0.1,0-0.1,0-0.2,0.1c0,0.1-0.1,0.2-0.1,0.4c0,0.2-0.1,0.5-0.1,0.9c0,0.4,0,1,0,1.7v4.9
			c0,0.6,0,1.1,0.1,1.3c0.1,0.2,0.2,0.3,0.3,0.3c0.2,0,0.5,0,0.7-0.1c0.1,0,0.2,0,0.2,0c0,0,0.1,0,0.3,0c0.9,0,1.3,0.4,1.3,1.2
			c0,0.9-0.5,1.3-1.6,1.3c0,0-0.1,0-0.3,0c-0.2,0-0.4,0-0.5-0.1c-0.3,0-0.7-0.1-1.1-0.1c-0.4,0-0.7-0.1-0.9-0.1
			c-0.5,0-0.9,0-1.3,0.1c-0.4,0-0.7,0.1-1,0.1c-0.1,0-0.2,0-0.2,0c0,0-0.1,0-0.2,0c-1,0-1.5-0.4-1.5-1.3c0-0.9,0.4-1.3,1.3-1.3
			c0.2,0,0.3,0,0.4,0c0.1,0,0.2,0,0.3,0.1c0.1,0,0.2,0,0.3,0.1c0.1,0,0.2,0,0.2,0c0.1,0,0.2-0.1,0.2-0.3c0-0.2,0.1-0.7,0.1-1.3v-1.7
			c0-0.3-0.3-0.5-0.9-0.5H341c-0.5,0-1,0.2-1.3,0.5c-0.4,0.3-0.5,0.8-0.5,1.3c0,0.2,0,0.3,0,0.5c0,0.2,0,0.3,0,0.5v0.7
			c0,1.1-0.3,1.8-0.8,2.3c-0.5,0.5-1.3,0.7-2.3,0.7c-2.2,0-3.3-1-3.3-3v-2.1c0-0.9,0.4-1.3,1.3-1.3c0.9,0,1.3,0.4,1.3,1.2v1.3
			c0,0.9,0.2,1.3,0.5,1.3c0.2,0,0.3-0.1,0.4-0.3c0.1-0.2,0.1-0.4,0.1-0.7c0-0.1,0-0.2,0-0.3c0-0.1,0-0.2,0-0.3V387.7z M344.1,380.9
			c0-0.2,0-0.4-0.1-0.6c-0.1-0.1-0.2-0.3-0.4-0.3c-0.2-0.1-0.5-0.1-0.8-0.2c-0.4,0-0.9-0.1-1.5-0.1c-1,0-1.7,0.2-2.1,0.5
			c-0.4,0.3-0.6,0.8-0.6,1.3c0,0.6,0.3,1.1,0.8,1.4c0.5,0.3,1.4,0.5,2.6,0.5h1.2c0.4,0,0.6-0.1,0.7-0.2c0.1-0.1,0.1-0.4,0.1-0.9
			V380.9z"/>
	</g>
	<g>
		<g>
			<path class="st3" d="M151.6,331.8h17c1.8,0,3.2-1.5,3.2-3.4c0-1.9-1.4-3.4-3.2-3.4h-17v-11.8h19.6c7.6,0,13.9,6,13.8,15
				c0,9-6.3,15.3-13.7,15.3h-6.7v18.6h-13V331.8z"/>
			<path class="st3" d="M241.1,362.1h-51.3v-11.8h5.9l6.5-18.6h13.5l-6.5,18.6h13.1l-12.9-37.1h13.4l13,37.1h5.3V362.1z"/>
			<path class="st3" d="M246,331.8l16.2-18.6h15.5l-21.3,24.5l21.2,24.4h-15.5L246,343.5V331.8z"/>
			<path class="st3" d="M298.7,362.1h-14.1l21.7-49.5l8.8,12.5L298.7,362.1z M328,312.6l21.9,49.5h-13.5l-8.1-17.6l-7.9,17.6
				l-9-11.7L328,312.6z"/>
		</g>
	</g>
</g>
</svg>
